<?xml version="1.0" encoding="utf-8" standalone="no"?>
<!DOCTYPE svg PUBLIC "-//W3C//DTD SVG 1.1//EN"
  "http://www.w3.org/Graphics/SVG/1.1/DTD/svg11.dtd">
<svg xmlns:xlink="http://www.w3.org/1999/xlink" width="371.345346pt" height="102.312168pt" viewBox="0 0 371.345346 102.312168" xmlns="http://www.w3.org/2000/svg" version="1.1">
 <metadata>
  <rdf:RDF xmlns:dc="http://purl.org/dc/elements/1.1/" xmlns:cc="http://creativecommons.org/ns#" xmlns:rdf="http://www.w3.org/1999/02/22-rdf-syntax-ns#">
   <cc:Work>
    <dc:type rdf:resource="http://purl.org/dc/dcmitype/StillImage"/>
    <dc:date>2024-04-20T22:34:38.662434</dc:date>
    <dc:format>image/svg+xml</dc:format>
    <dc:creator>
     <cc:Agent>
      <dc:title>Matplotlib v3.8.0, https://matplotlib.org/</dc:title>
     </cc:Agent>
    </dc:creator>
   </cc:Work>
  </rdf:RDF>
 </metadata>
 <defs>
  <style type="text/css">*{stroke-linejoin: round; stroke-linecap: butt}</style>
 </defs>
 <g id="figure_1">
  <g id="patch_1">
   <path d="M -0 102.312168 
L 371.345346 102.312168 
L 371.345346 0 
L -0 0 
z
" style="fill: #ffffff"/>
  </g>
  <g id="axes_1">
   <g id="patch_2">
    <path d="M 26.925 78.434043 
L 361.725 78.434043 
L 361.725 7.2 
L 26.925 7.2 
z
" style="fill: #ffffff"/>
   </g>
   <g id="patch_3">
    <path d="M 176.516489 49.940426 
L 182.123309 49.940426 
L 182.123309 42.817021 
L 176.516489 42.817021 
z
" clip-path="url(#pcd86a8c859)" style="fill: #ffffff; stroke: #000000; stroke-linejoin: miter"/>
   </g>
   <g id="patch_4">
    <path d="M 176.516489 42.817021 
L 182.123309 42.817021 
L 182.123309 35.693617 
L 176.516489 35.693617 
z
" clip-path="url(#pcd86a8c859)" style="fill: #ffffff; stroke: #000000; stroke-linejoin: miter"/>
   </g>
   <g id="patch_5">
    <path d="M 182.123309 49.940426 
L 189.930933 49.940426 
L 189.930933 42.817021 
L 182.123309 42.817021 
z
" clip-path="url(#pcd86a8c859)" style="fill: #ffffff; stroke: #000000; stroke-linejoin: miter"/>
   </g>
   <g id="patch_6">
    <path d="M 182.123309 42.817021 
L 189.930933 42.817021 
L 189.930933 35.693617 
L 182.123309 35.693617 
z
" clip-path="url(#pcd86a8c859)" style="fill: #ffffff; stroke: #000000; stroke-linejoin: miter"/>
   </g>
   <g id="patch_7">
    <path d="M 189.930933 49.940426 
L 198.719067 49.940426 
L 198.719067 42.817021 
L 189.930933 42.817021 
z
" clip-path="url(#pcd86a8c859)" style="fill: #ffffff; stroke: #000000; stroke-linejoin: miter"/>
   </g>
   <g id="patch_8">
    <path d="M 189.930933 42.817021 
L 198.719067 42.817021 
L 198.719067 35.693617 
L 189.930933 35.693617 
z
" clip-path="url(#pcd86a8c859)" style="fill: #ffffff; stroke: #000000; stroke-linejoin: miter"/>
   </g>
   <g id="patch_9">
    <path d="M 198.719067 49.940426 
L 206.526691 49.940426 
L 206.526691 42.817021 
L 198.719067 42.817021 
z
" clip-path="url(#pcd86a8c859)" style="fill: #ffffff; stroke: #000000; stroke-linejoin: miter"/>
   </g>
   <g id="patch_10">
    <path d="M 198.719067 42.817021 
L 206.526691 42.817021 
L 206.526691 35.693617 
L 198.719067 35.693617 
z
" clip-path="url(#pcd86a8c859)" style="fill: #ffffff; stroke: #000000; stroke-linejoin: miter"/>
   </g>
   <g id="patch_11">
    <path d="M 206.526691 49.940426 
L 212.133511 49.940426 
L 212.133511 42.817021 
L 206.526691 42.817021 
z
" clip-path="url(#pcd86a8c859)" style="fill: #ffffff; stroke: #000000; stroke-linejoin: miter"/>
   </g>
   <g id="patch_12">
    <path d="M 206.526691 42.817021 
L 212.133511 42.817021 
L 212.133511 35.693617 
L 206.526691 35.693617 
z
" clip-path="url(#pcd86a8c859)" style="fill: #ffffff; stroke: #000000; stroke-linejoin: miter"/>
   </g>
   <g id="patch_13">
    <path d="M 34.048404 49.940426 
L 45.152454 49.940426 
L 45.152454 42.817021 
L 34.048404 42.817021 
z
" clip-path="url(#pcd86a8c859)" style="fill: #ffffff; stroke: #ff0000; stroke-linejoin: miter"/>
   </g>
   <g id="patch_14">
    <path d="M 34.048404 42.817021 
L 45.152454 42.817021 
L 45.152454 35.693617 
L 34.048404 35.693617 
z
" clip-path="url(#pcd86a8c859)" style="fill: #ffffff; stroke: #ff0000; stroke-linejoin: miter"/>
   </g>
   <g id="patch_15">
    <path d="M 45.152454 49.940426 
L 55.701301 49.940426 
L 55.701301 42.817021 
L 45.152454 42.817021 
z
" clip-path="url(#pcd86a8c859)" style="fill: #ffffff; stroke: #ff0000; stroke-linejoin: miter"/>
   </g>
   <g id="patch_16">
    <path d="M 45.152454 42.817021 
L 55.701301 42.817021 
L 55.701301 35.693617 
L 45.152454 35.693617 
z
" clip-path="url(#pcd86a8c859)" style="fill: #ffffff; stroke: #ff0000; stroke-linejoin: miter"/>
   </g>
   <g id="patch_17">
    <path d="M 55.701301 49.940426 
L 65.722706 49.940426 
L 65.722706 42.817021 
L 55.701301 42.817021 
z
" clip-path="url(#pcd86a8c859)" style="fill: #ffffff; stroke: #ff0000; stroke-linejoin: miter"/>
   </g>
   <g id="patch_18">
    <path d="M 55.701301 42.817021 
L 65.722706 42.817021 
L 65.722706 35.693617 
L 55.701301 35.693617 
z
" clip-path="url(#pcd86a8c859)" style="fill: #ffffff; stroke: #ff0000; stroke-linejoin: miter"/>
   </g>
   <g id="patch_19">
    <path d="M 65.722706 49.940426 
L 75.243041 49.940426 
L 75.243041 42.817021 
L 65.722706 42.817021 
z
" clip-path="url(#pcd86a8c859)" style="fill: #ffffff; stroke: #ff0000; stroke-linejoin: miter"/>
   </g>
   <g id="patch_20">
    <path d="M 65.722706 42.817021 
L 75.243041 42.817021 
L 75.243041 35.693617 
L 65.722706 35.693617 
z
" clip-path="url(#pcd86a8c859)" style="fill: #ffffff; stroke: #ff0000; stroke-linejoin: miter"/>
   </g>
   <g id="patch_21">
    <path d="M 75.243041 49.940426 
L 84.287359 49.940426 
L 84.287359 42.817021 
L 75.243041 42.817021 
z
" clip-path="url(#pcd86a8c859)" style="fill: #ffffff; stroke: #ff0000; stroke-linejoin: miter"/>
   </g>
   <g id="patch_22">
    <path d="M 75.243041 42.817021 
L 84.287359 42.817021 
L 84.287359 35.693617 
L 75.243041 35.693617 
z
" clip-path="url(#pcd86a8c859)" style="fill: #ffffff; stroke: #ff0000; stroke-linejoin: miter"/>
   </g>
   <g id="patch_23">
    <path d="M 84.287359 49.940426 
L 92.879461 49.940426 
L 92.879461 42.817021 
L 84.287359 42.817021 
z
" clip-path="url(#pcd86a8c859)" style="fill: #ffffff; stroke: #ff0000; stroke-linejoin: miter"/>
   </g>
   <g id="patch_24">
    <path d="M 84.287359 42.817021 
L 92.879461 42.817021 
L 92.879461 35.693617 
L 84.287359 35.693617 
z
" clip-path="url(#pcd86a8c859)" style="fill: #ffffff; stroke: #ff0000; stroke-linejoin: miter"/>
   </g>
   <g id="patch_25">
    <path d="M 92.879461 49.940426 
L 101.041958 49.940426 
L 101.041958 42.817021 
L 92.879461 42.817021 
z
" clip-path="url(#pcd86a8c859)" style="fill: #ffffff; stroke: #ff0000; stroke-linejoin: miter"/>
   </g>
   <g id="patch_26">
    <path d="M 92.879461 42.817021 
L 101.041958 42.817021 
L 101.041958 35.693617 
L 92.879461 35.693617 
z
" clip-path="url(#pcd86a8c859)" style="fill: #ffffff; stroke: #ff0000; stroke-linejoin: miter"/>
   </g>
   <g id="patch_27">
    <path d="M 101.041958 49.940426 
L 108.79633 49.940426 
L 108.79633 42.817021 
L 101.041958 42.817021 
z
" clip-path="url(#pcd86a8c859)" style="fill: #ffffff; stroke: #ff0000; stroke-linejoin: miter"/>
   </g>
   <g id="patch_28">
    <path d="M 101.041958 42.817021 
L 108.79633 42.817021 
L 108.79633 35.693617 
L 101.041958 35.693617 
z
" clip-path="url(#pcd86a8c859)" style="fill: #ffffff; stroke: #ff0000; stroke-linejoin: miter"/>
   </g>
   <g id="patch_29">
    <path d="M 108.79633 49.940426 
L 116.162984 49.940426 
L 116.162984 42.817021 
L 108.79633 42.817021 
z
" clip-path="url(#pcd86a8c859)" style="fill: #ffffff; stroke: #ff0000; stroke-linejoin: miter"/>
   </g>
   <g id="patch_30">
    <path d="M 108.79633 42.817021 
L 116.162984 42.817021 
L 116.162984 35.693617 
L 108.79633 35.693617 
z
" clip-path="url(#pcd86a8c859)" style="fill: #ffffff; stroke: #ff0000; stroke-linejoin: miter"/>
   </g>
   <g id="patch_31">
    <path d="M 116.162984 49.940426 
L 123.161304 49.940426 
L 123.161304 42.817021 
L 116.162984 42.817021 
z
" clip-path="url(#pcd86a8c859)" style="fill: #ffffff; stroke: #ff0000; stroke-linejoin: miter"/>
   </g>
   <g id="patch_32">
    <path d="M 116.162984 42.817021 
L 123.161304 42.817021 
L 123.161304 35.693617 
L 116.162984 35.693617 
z
" clip-path="url(#pcd86a8c859)" style="fill: #ffffff; stroke: #ff0000; stroke-linejoin: miter"/>
   </g>
   <g id="patch_33">
    <path d="M 123.161304 49.940426 
L 129.809709 49.940426 
L 129.809709 42.817021 
L 123.161304 42.817021 
z
" clip-path="url(#pcd86a8c859)" style="fill: #ffffff; stroke: #ff0000; stroke-linejoin: miter"/>
   </g>
   <g id="patch_34">
    <path d="M 123.161304 42.817021 
L 129.809709 42.817021 
L 129.809709 35.693617 
L 123.161304 35.693617 
z
" clip-path="url(#pcd86a8c859)" style="fill: #ffffff; stroke: #ff0000; stroke-linejoin: miter"/>
   </g>
   <g id="patch_35">
    <path d="M 129.809709 49.940426 
L 136.125694 49.940426 
L 136.125694 42.817021 
L 129.809709 42.817021 
z
" clip-path="url(#pcd86a8c859)" style="fill: #ffffff; stroke: #ff0000; stroke-linejoin: miter"/>
   </g>
   <g id="patch_36">
    <path d="M 129.809709 42.817021 
L 136.125694 42.817021 
L 136.125694 35.693617 
L 129.809709 35.693617 
z
" clip-path="url(#pcd86a8c859)" style="fill: #ffffff; stroke: #ff0000; stroke-linejoin: miter"/>
   </g>
   <g id="patch_37">
    <path d="M 136.125694 49.940426 
L 142.125879 49.940426 
L 142.125879 42.817021 
L 136.125694 42.817021 
z
" clip-path="url(#pcd86a8c859)" style="fill: #ffffff; stroke: #ff0000; stroke-linejoin: miter"/>
   </g>
   <g id="patch_38">
    <path d="M 136.125694 42.817021 
L 142.125879 42.817021 
L 142.125879 35.693617 
L 136.125694 35.693617 
z
" clip-path="url(#pcd86a8c859)" style="fill: #ffffff; stroke: #ff0000; stroke-linejoin: miter"/>
   </g>
   <g id="patch_39">
    <path d="M 142.125879 49.940426 
L 147.826055 49.940426 
L 147.826055 42.817021 
L 142.125879 42.817021 
z
" clip-path="url(#pcd86a8c859)" style="fill: #ffffff; stroke: #ff0000; stroke-linejoin: miter"/>
   </g>
   <g id="patch_40">
    <path d="M 142.125879 42.817021 
L 147.826055 42.817021 
L 147.826055 35.693617 
L 142.125879 35.693617 
z
" clip-path="url(#pcd86a8c859)" style="fill: #ffffff; stroke: #ff0000; stroke-linejoin: miter"/>
   </g>
   <g id="patch_41">
    <path d="M 147.826055 49.940426 
L 153.241222 49.940426 
L 153.241222 42.817021 
L 147.826055 42.817021 
z
" clip-path="url(#pcd86a8c859)" style="fill: #ffffff; stroke: #ff0000; stroke-linejoin: miter"/>
   </g>
   <g id="patch_42">
    <path d="M 147.826055 42.817021 
L 153.241222 42.817021 
L 153.241222 35.693617 
L 147.826055 35.693617 
z
" clip-path="url(#pcd86a8c859)" style="fill: #ffffff; stroke: #ff0000; stroke-linejoin: miter"/>
   </g>
   <g id="patch_43">
    <path d="M 153.241222 49.940426 
L 158.385631 49.940426 
L 158.385631 42.817021 
L 153.241222 42.817021 
z
" clip-path="url(#pcd86a8c859)" style="fill: #ffffff; stroke: #ff0000; stroke-linejoin: miter"/>
   </g>
   <g id="patch_44">
    <path d="M 153.241222 42.817021 
L 158.385631 42.817021 
L 158.385631 35.693617 
L 153.241222 35.693617 
z
" clip-path="url(#pcd86a8c859)" style="fill: #ffffff; stroke: #ff0000; stroke-linejoin: miter"/>
   </g>
   <g id="patch_45">
    <path d="M 158.385631 49.940426 
L 163.27282 49.940426 
L 163.27282 42.817021 
L 158.385631 42.817021 
z
" clip-path="url(#pcd86a8c859)" style="fill: #ffffff; stroke: #ff0000; stroke-linejoin: miter"/>
   </g>
   <g id="patch_46">
    <path d="M 158.385631 42.817021 
L 163.27282 42.817021 
L 163.27282 35.693617 
L 158.385631 35.693617 
z
" clip-path="url(#pcd86a8c859)" style="fill: #ffffff; stroke: #ff0000; stroke-linejoin: miter"/>
   </g>
   <g id="patch_47">
    <path d="M 163.27282 49.940426 
L 167.915649 49.940426 
L 167.915649 42.817021 
L 163.27282 42.817021 
z
" clip-path="url(#pcd86a8c859)" style="fill: #ffffff; stroke: #ff0000; stroke-linejoin: miter"/>
   </g>
   <g id="patch_48">
    <path d="M 163.27282 42.817021 
L 167.915649 42.817021 
L 167.915649 35.693617 
L 163.27282 35.693617 
z
" clip-path="url(#pcd86a8c859)" style="fill: #ffffff; stroke: #ff0000; stroke-linejoin: miter"/>
   </g>
   <g id="patch_49">
    <path d="M 167.915649 49.940426 
L 172.326336 49.940426 
L 172.326336 42.817021 
L 167.915649 42.817021 
z
" clip-path="url(#pcd86a8c859)" style="fill: #ffffff; stroke: #ff0000; stroke-linejoin: miter"/>
   </g>
   <g id="patch_50">
    <path d="M 167.915649 42.817021 
L 172.326336 42.817021 
L 172.326336 35.693617 
L 167.915649 35.693617 
z
" clip-path="url(#pcd86a8c859)" style="fill: #ffffff; stroke: #ff0000; stroke-linejoin: miter"/>
   </g>
   <g id="patch_51">
    <path d="M 172.326336 49.940426 
L 176.516489 49.940426 
L 176.516489 42.817021 
L 172.326336 42.817021 
z
" clip-path="url(#pcd86a8c859)" style="fill: #ffffff; stroke: #ff0000; stroke-linejoin: miter"/>
   </g>
   <g id="patch_52">
    <path d="M 172.326336 42.817021 
L 176.516489 42.817021 
L 176.516489 35.693617 
L 172.326336 35.693617 
z
" clip-path="url(#pcd86a8c859)" style="fill: #ffffff; stroke: #ff0000; stroke-linejoin: miter"/>
   </g>
   <g id="patch_53">
    <path d="M 212.133511 49.940426 
L 216.442114 49.940426 
L 216.442114 42.817021 
L 212.133511 42.817021 
z
" clip-path="url(#pcd86a8c859)" style="fill: #ffffff; stroke: #0000ff; stroke-linejoin: miter"/>
   </g>
   <g id="patch_54">
    <path d="M 212.133511 42.817021 
L 216.442114 42.817021 
L 216.442114 35.693617 
L 212.133511 35.693617 
z
" clip-path="url(#pcd86a8c859)" style="fill: #ffffff; stroke: #0000ff; stroke-linejoin: miter"/>
   </g>
   <g id="patch_55">
    <path d="M 216.442114 49.940426 
L 220.966148 49.940426 
L 220.966148 42.817021 
L 216.442114 42.817021 
z
" clip-path="url(#pcd86a8c859)" style="fill: #ffffff; stroke: #0000ff; stroke-linejoin: miter"/>
   </g>
   <g id="patch_56">
    <path d="M 216.442114 42.817021 
L 220.966148 42.817021 
L 220.966148 35.693617 
L 216.442114 35.693617 
z
" clip-path="url(#pcd86a8c859)" style="fill: #ffffff; stroke: #0000ff; stroke-linejoin: miter"/>
   </g>
   <g id="patch_57">
    <path d="M 220.966148 49.940426 
L 225.716383 49.940426 
L 225.716383 42.817021 
L 220.966148 42.817021 
z
" clip-path="url(#pcd86a8c859)" style="fill: #ffffff; stroke: #0000ff; stroke-linejoin: miter"/>
   </g>
   <g id="patch_58">
    <path d="M 220.966148 42.817021 
L 225.716383 42.817021 
L 225.716383 35.693617 
L 220.966148 35.693617 
z
" clip-path="url(#pcd86a8c859)" style="fill: #ffffff; stroke: #0000ff; stroke-linejoin: miter"/>
   </g>
   <g id="patch_59">
    <path d="M 225.716383 49.940426 
L 230.70413 49.940426 
L 230.70413 42.817021 
L 225.716383 42.817021 
z
" clip-path="url(#pcd86a8c859)" style="fill: #ffffff; stroke: #0000ff; stroke-linejoin: miter"/>
   </g>
   <g id="patch_60">
    <path d="M 225.716383 42.817021 
L 230.70413 42.817021 
L 230.70413 35.693617 
L 225.716383 35.693617 
z
" clip-path="url(#pcd86a8c859)" style="fill: #ffffff; stroke: #0000ff; stroke-linejoin: miter"/>
   </g>
   <g id="patch_61">
    <path d="M 230.70413 49.940426 
L 235.941265 49.940426 
L 235.941265 42.817021 
L 230.70413 42.817021 
z
" clip-path="url(#pcd86a8c859)" style="fill: #ffffff; stroke: #0000ff; stroke-linejoin: miter"/>
   </g>
   <g id="patch_62">
    <path d="M 230.70413 42.817021 
L 235.941265 42.817021 
L 235.941265 35.693617 
L 230.70413 35.693617 
z
" clip-path="url(#pcd86a8c859)" style="fill: #ffffff; stroke: #0000ff; stroke-linejoin: miter"/>
   </g>
   <g id="patch_63">
    <path d="M 235.941265 49.940426 
L 241.440256 49.940426 
L 241.440256 42.817021 
L 235.941265 42.817021 
z
" clip-path="url(#pcd86a8c859)" style="fill: #ffffff; stroke: #0000ff; stroke-linejoin: miter"/>
   </g>
   <g id="patch_64">
    <path d="M 235.941265 42.817021 
L 241.440256 42.817021 
L 241.440256 35.693617 
L 235.941265 35.693617 
z
" clip-path="url(#pcd86a8c859)" style="fill: #ffffff; stroke: #0000ff; stroke-linejoin: miter"/>
   </g>
   <g id="patch_65">
    <path d="M 241.440256 49.940426 
L 247.214197 49.940426 
L 247.214197 42.817021 
L 241.440256 42.817021 
z
" clip-path="url(#pcd86a8c859)" style="fill: #ffffff; stroke: #0000ff; stroke-linejoin: miter"/>
   </g>
   <g id="patch_66">
    <path d="M 241.440256 42.817021 
L 247.214197 42.817021 
L 247.214197 35.693617 
L 241.440256 35.693617 
z
" clip-path="url(#pcd86a8c859)" style="fill: #ffffff; stroke: #0000ff; stroke-linejoin: miter"/>
   </g>
   <g id="patch_67">
    <path d="M 247.214197 49.940426 
L 253.276835 49.940426 
L 253.276835 42.817021 
L 247.214197 42.817021 
z
" clip-path="url(#pcd86a8c859)" style="fill: #ffffff; stroke: #0000ff; stroke-linejoin: miter"/>
   </g>
   <g id="patch_68">
    <path d="M 247.214197 42.817021 
L 253.276835 42.817021 
L 253.276835 35.693617 
L 247.214197 35.693617 
z
" clip-path="url(#pcd86a8c859)" style="fill: #ffffff; stroke: #0000ff; stroke-linejoin: miter"/>
   </g>
   <g id="patch_69">
    <path d="M 253.276835 49.940426 
L 259.642604 49.940426 
L 259.642604 42.817021 
L 253.276835 42.817021 
z
" clip-path="url(#pcd86a8c859)" style="fill: #ffffff; stroke: #0000ff; stroke-linejoin: miter"/>
   </g>
   <g id="patch_70">
    <path d="M 253.276835 42.817021 
L 259.642604 42.817021 
L 259.642604 35.693617 
L 253.276835 35.693617 
z
" clip-path="url(#pcd86a8c859)" style="fill: #ffffff; stroke: #0000ff; stroke-linejoin: miter"/>
   </g>
   <g id="patch_71">
    <path d="M 259.642604 49.940426 
L 266.326662 49.940426 
L 266.326662 42.817021 
L 259.642604 42.817021 
z
" clip-path="url(#pcd86a8c859)" style="fill: #ffffff; stroke: #0000ff; stroke-linejoin: miter"/>
   </g>
   <g id="patch_72">
    <path d="M 259.642604 42.817021 
L 266.326662 42.817021 
L 266.326662 35.693617 
L 259.642604 35.693617 
z
" clip-path="url(#pcd86a8c859)" style="fill: #ffffff; stroke: #0000ff; stroke-linejoin: miter"/>
   </g>
   <g id="patch_73">
    <path d="M 266.326662 49.940426 
L 273.344923 49.940426 
L 273.344923 42.817021 
L 266.326662 42.817021 
z
" clip-path="url(#pcd86a8c859)" style="fill: #ffffff; stroke: #0000ff; stroke-linejoin: miter"/>
   </g>
   <g id="patch_74">
    <path d="M 266.326662 42.817021 
L 273.344923 42.817021 
L 273.344923 35.693617 
L 266.326662 35.693617 
z
" clip-path="url(#pcd86a8c859)" style="fill: #ffffff; stroke: #0000ff; stroke-linejoin: miter"/>
   </g>
   <g id="patch_75">
    <path d="M 273.344923 49.940426 
L 280.714098 49.940426 
L 280.714098 42.817021 
L 273.344923 42.817021 
z
" clip-path="url(#pcd86a8c859)" style="fill: #ffffff; stroke: #0000ff; stroke-linejoin: miter"/>
   </g>
   <g id="patch_76">
    <path d="M 273.344923 42.817021 
L 280.714098 42.817021 
L 280.714098 35.693617 
L 273.344923 35.693617 
z
" clip-path="url(#pcd86a8c859)" style="fill: #ffffff; stroke: #0000ff; stroke-linejoin: miter"/>
   </g>
   <g id="patch_77">
    <path d="M 280.714098 49.940426 
L 288.45173 49.940426 
L 288.45173 42.817021 
L 280.714098 42.817021 
z
" clip-path="url(#pcd86a8c859)" style="fill: #ffffff; stroke: #0000ff; stroke-linejoin: miter"/>
   </g>
   <g id="patch_78">
    <path d="M 280.714098 42.817021 
L 288.45173 42.817021 
L 288.45173 35.693617 
L 280.714098 35.693617 
z
" clip-path="url(#pcd86a8c859)" style="fill: #ffffff; stroke: #0000ff; stroke-linejoin: miter"/>
   </g>
   <g id="patch_79">
    <path d="M 288.45173 49.940426 
L 296.576245 49.940426 
L 296.576245 42.817021 
L 288.45173 42.817021 
z
" clip-path="url(#pcd86a8c859)" style="fill: #ffffff; stroke: #0000ff; stroke-linejoin: miter"/>
   </g>
   <g id="patch_80">
    <path d="M 288.45173 42.817021 
L 296.576245 42.817021 
L 296.576245 35.693617 
L 288.45173 35.693617 
z
" clip-path="url(#pcd86a8c859)" style="fill: #ffffff; stroke: #0000ff; stroke-linejoin: miter"/>
   </g>
   <g id="patch_81">
    <path d="M 296.576245 49.940426 
L 305.106985 49.940426 
L 305.106985 42.817021 
L 296.576245 42.817021 
z
" clip-path="url(#pcd86a8c859)" style="fill: #ffffff; stroke: #0000ff; stroke-linejoin: miter"/>
   </g>
   <g id="patch_82">
    <path d="M 296.576245 42.817021 
L 305.106985 42.817021 
L 305.106985 35.693617 
L 296.576245 35.693617 
z
" clip-path="url(#pcd86a8c859)" style="fill: #ffffff; stroke: #0000ff; stroke-linejoin: miter"/>
   </g>
   <g id="patch_83">
    <path d="M 305.106985 49.940426 
L 314.064262 49.940426 
L 314.064262 42.817021 
L 305.106985 42.817021 
z
" clip-path="url(#pcd86a8c859)" style="fill: #ffffff; stroke: #0000ff; stroke-linejoin: miter"/>
   </g>
   <g id="patch_84">
    <path d="M 305.106985 42.817021 
L 314.064262 42.817021 
L 314.064262 35.693617 
L 305.106985 35.693617 
z
" clip-path="url(#pcd86a8c859)" style="fill: #ffffff; stroke: #0000ff; stroke-linejoin: miter"/>
   </g>
   <g id="patch_85">
    <path d="M 314.064262 49.940426 
L 323.469403 49.940426 
L 323.469403 42.817021 
L 314.064262 42.817021 
z
" clip-path="url(#pcd86a8c859)" style="fill: #ffffff; stroke: #0000ff; stroke-linejoin: miter"/>
   </g>
   <g id="patch_86">
    <path d="M 314.064262 42.817021 
L 323.469403 42.817021 
L 323.469403 35.693617 
L 314.064262 35.693617 
z
" clip-path="url(#pcd86a8c859)" style="fill: #ffffff; stroke: #0000ff; stroke-linejoin: miter"/>
   </g>
   <g id="patch_87">
    <path d="M 323.469403 49.940426 
L 333.344801 49.940426 
L 333.344801 42.817021 
L 323.469403 42.817021 
z
" clip-path="url(#pcd86a8c859)" style="fill: #ffffff; stroke: #0000ff; stroke-linejoin: miter"/>
   </g>
   <g id="patch_88">
    <path d="M 323.469403 42.817021 
L 333.344801 42.817021 
L 333.344801 35.693617 
L 323.469403 35.693617 
z
" clip-path="url(#pcd86a8c859)" style="fill: #ffffff; stroke: #0000ff; stroke-linejoin: miter"/>
   </g>
   <g id="patch_89">
    <path d="M 333.344801 49.940426 
L 343.713969 49.940426 
L 343.713969 42.817021 
L 333.344801 42.817021 
z
" clip-path="url(#pcd86a8c859)" style="fill: #ffffff; stroke: #0000ff; stroke-linejoin: miter"/>
   </g>
   <g id="patch_90">
    <path d="M 333.344801 42.817021 
L 343.713969 42.817021 
L 343.713969 35.693617 
L 333.344801 35.693617 
z
" clip-path="url(#pcd86a8c859)" style="fill: #ffffff; stroke: #0000ff; stroke-linejoin: miter"/>
   </g>
   <g id="patch_91">
    <path d="M 343.713969 49.940426 
L 354.601596 49.940426 
L 354.601596 42.817021 
L 343.713969 42.817021 
z
" clip-path="url(#pcd86a8c859)" style="fill: #ffffff; stroke: #0000ff; stroke-linejoin: miter"/>
   </g>
   <g id="patch_92">
    <path d="M 343.713969 42.817021 
L 354.601596 42.817021 
L 354.601596 35.693617 
L 343.713969 35.693617 
z
" clip-path="url(#pcd86a8c859)" style="fill: #ffffff; stroke: #0000ff; stroke-linejoin: miter"/>
   </g>
   <g id="matplotlib.axis_1">
    <g id="xtick_1">
     <g id="line2d_1">
      <defs>
       <path id="meb22a33dc9" d="M 0 0 
L 0 3.5 
" style="stroke: #000000; stroke-width: 0.8"/>
      </defs>
      <g>
       <use xlink:href="#meb22a33dc9" x="34.048404" y="78.434043" style="stroke: #000000; stroke-width: 0.8"/>
      </g>
     </g>
     <g id="text_1">
      <!-- 0 -->
      <g transform="translate(30.867154 93.03248) scale(0.1 -0.1)">
       <defs>
        <path id="DejaVuSans-30" d="M 2034 4250 
Q 1547 4250 1301 3770 
Q 1056 3291 1056 2328 
Q 1056 1369 1301 889 
Q 1547 409 2034 409 
Q 2525 409 2770 889 
Q 3016 1369 3016 2328 
Q 3016 3291 2770 3770 
Q 2525 4250 2034 4250 
z
M 2034 4750 
Q 2819 4750 3233 4129 
Q 3647 3509 3647 2328 
Q 3647 1150 3233 529 
Q 2819 -91 2034 -91 
Q 1250 -91 836 529 
Q 422 1150 422 2328 
Q 422 3509 836 4129 
Q 1250 4750 2034 4750 
z
" transform="scale(0.015625)"/>
       </defs>
       <use xlink:href="#DejaVuSans-30"/>
      </g>
     </g>
    </g>
    <g id="xtick_2">
     <g id="line2d_2">
      <g>
       <use xlink:href="#meb22a33dc9" x="105.282447" y="78.434043" style="stroke: #000000; stroke-width: 0.8"/>
      </g>
     </g>
     <g id="text_2">
      <!-- 50 -->
      <g transform="translate(98.919947 93.03248) scale(0.1 -0.1)">
       <defs>
        <path id="DejaVuSans-35" d="M 691 4666 
L 3169 4666 
L 3169 4134 
L 1269 4134 
L 1269 2991 
Q 1406 3038 1543 3061 
Q 1681 3084 1819 3084 
Q 2600 3084 3056 2656 
Q 3513 2228 3513 1497 
Q 3513 744 3044 326 
Q 2575 -91 1722 -91 
Q 1428 -91 1123 -41 
Q 819 9 494 109 
L 494 744 
Q 775 591 1075 516 
Q 1375 441 1709 441 
Q 2250 441 2565 725 
Q 2881 1009 2881 1497 
Q 2881 1984 2565 2268 
Q 2250 2553 1709 2553 
Q 1456 2553 1204 2497 
Q 953 2441 691 2322 
L 691 4666 
z
" transform="scale(0.015625)"/>
       </defs>
       <use xlink:href="#DejaVuSans-35"/>
       <use xlink:href="#DejaVuSans-30" x="63.623047"/>
      </g>
     </g>
    </g>
    <g id="xtick_3">
     <g id="line2d_3">
      <g>
       <use xlink:href="#meb22a33dc9" x="176.516489" y="78.434043" style="stroke: #000000; stroke-width: 0.8"/>
      </g>
     </g>
     <g id="text_3">
      <!-- 100 -->
      <g transform="translate(166.972739 93.03248) scale(0.1 -0.1)">
       <defs>
        <path id="DejaVuSans-31" d="M 794 531 
L 1825 531 
L 1825 4091 
L 703 3866 
L 703 4441 
L 1819 4666 
L 2450 4666 
L 2450 531 
L 3481 531 
L 3481 0 
L 794 0 
L 794 531 
z
" transform="scale(0.015625)"/>
       </defs>
       <use xlink:href="#DejaVuSans-31"/>
       <use xlink:href="#DejaVuSans-30" x="63.623047"/>
       <use xlink:href="#DejaVuSans-30" x="127.246094"/>
      </g>
     </g>
    </g>
    <g id="xtick_4">
     <g id="line2d_4">
      <g>
       <use xlink:href="#meb22a33dc9" x="247.750532" y="78.434043" style="stroke: #000000; stroke-width: 0.8"/>
      </g>
     </g>
     <g id="text_4">
      <!-- 150 -->
      <g transform="translate(238.206782 93.03248) scale(0.1 -0.1)">
       <use xlink:href="#DejaVuSans-31"/>
       <use xlink:href="#DejaVuSans-35" x="63.623047"/>
       <use xlink:href="#DejaVuSans-30" x="127.246094"/>
      </g>
     </g>
    </g>
    <g id="xtick_5">
     <g id="line2d_5">
      <g>
       <use xlink:href="#meb22a33dc9" x="318.984574" y="78.434043" style="stroke: #000000; stroke-width: 0.8"/>
      </g>
     </g>
     <g id="text_5">
      <!-- 200 -->
      <g transform="translate(309.440824 93.03248) scale(0.1 -0.1)">
       <defs>
        <path id="DejaVuSans-32" d="M 1228 531 
L 3431 531 
L 3431 0 
L 469 0 
L 469 531 
Q 828 903 1448 1529 
Q 2069 2156 2228 2338 
Q 2531 2678 2651 2914 
Q 2772 3150 2772 3378 
Q 2772 3750 2511 3984 
Q 2250 4219 1831 4219 
Q 1534 4219 1204 4116 
Q 875 4013 500 3803 
L 500 4441 
Q 881 4594 1212 4672 
Q 1544 4750 1819 4750 
Q 2544 4750 2975 4387 
Q 3406 4025 3406 3419 
Q 3406 3131 3298 2873 
Q 3191 2616 2906 2266 
Q 2828 2175 2409 1742 
Q 1991 1309 1228 531 
z
" transform="scale(0.015625)"/>
       </defs>
       <use xlink:href="#DejaVuSans-32"/>
       <use xlink:href="#DejaVuSans-30" x="63.623047"/>
       <use xlink:href="#DejaVuSans-30" x="127.246094"/>
      </g>
     </g>
    </g>
    <g id="xtick_6">
     <g id="line2d_6">
      <g>
       <use xlink:href="#meb22a33dc9" x="354.601596" y="78.434043" style="stroke: #000000; stroke-width: 0.8"/>
      </g>
     </g>
     <g id="text_6">
      <!-- 225 -->
      <g transform="translate(345.057846 93.03248) scale(0.1 -0.1)">
       <use xlink:href="#DejaVuSans-32"/>
       <use xlink:href="#DejaVuSans-32" x="63.623047"/>
       <use xlink:href="#DejaVuSans-35" x="127.246094"/>
      </g>
     </g>
    </g>
   </g>
   <g id="matplotlib.axis_2">
    <g id="ytick_1">
     <g id="line2d_7">
      <defs>
       <path id="md505f0406a" d="M 0 0 
L -3.5 0 
" style="stroke: #000000; stroke-width: 0.8"/>
      </defs>
      <g>
       <use xlink:href="#md505f0406a" x="26.925" y="49.940426" style="stroke: #000000; stroke-width: 0.8"/>
      </g>
     </g>
     <g id="text_7">
      <!-- 0 -->
      <g transform="translate(13.5625 53.739644) scale(0.1 -0.1)">
       <use xlink:href="#DejaVuSans-30"/>
      </g>
     </g>
    </g>
    <g id="ytick_2">
     <g id="line2d_8">
      <g>
       <use xlink:href="#md505f0406a" x="26.925" y="35.693617" style="stroke: #000000; stroke-width: 0.8"/>
      </g>
     </g>
     <g id="text_8">
      <!-- 10 -->
      <g transform="translate(7.2 39.492836) scale(0.1 -0.1)">
       <use xlink:href="#DejaVuSans-31"/>
       <use xlink:href="#DejaVuSans-30" x="63.623047"/>
      </g>
     </g>
    </g>
   </g>
   <g id="patch_93">
    <path d="M 26.925 78.434043 
L 26.925 7.2 
" style="fill: none; stroke: #000000; stroke-width: 0.8; stroke-linejoin: miter; stroke-linecap: square"/>
   </g>
   <g id="patch_94">
    <path d="M 361.725 78.434043 
L 361.725 7.2 
" style="fill: none; stroke: #000000; stroke-width: 0.8; stroke-linejoin: miter; stroke-linecap: square"/>
   </g>
   <g id="patch_95">
    <path d="M 26.925 78.434043 
L 361.725 78.434043 
" style="fill: none; stroke: #000000; stroke-width: 0.8; stroke-linejoin: miter; stroke-linecap: square"/>
   </g>
   <g id="patch_96">
    <path d="M 26.925 7.2 
L 361.725 7.2 
" style="fill: none; stroke: #000000; stroke-width: 0.8; stroke-linejoin: miter; stroke-linecap: square"/>
   </g>
   <g id="text_9">
    <!-- anode -->
    <g transform="translate(69.665426 28.570213) scale(0.1 -0.1)">
     <defs>
      <path id="DejaVuSans-61" d="M 2194 1759 
Q 1497 1759 1228 1600 
Q 959 1441 959 1056 
Q 959 750 1161 570 
Q 1363 391 1709 391 
Q 2188 391 2477 730 
Q 2766 1069 2766 1631 
L 2766 1759 
L 2194 1759 
z
M 3341 1997 
L 3341 0 
L 2766 0 
L 2766 531 
Q 2569 213 2275 61 
Q 1981 -91 1556 -91 
Q 1019 -91 701 211 
Q 384 513 384 1019 
Q 384 1609 779 1909 
Q 1175 2209 1959 2209 
L 2766 2209 
L 2766 2266 
Q 2766 2663 2505 2880 
Q 2244 3097 1772 3097 
Q 1472 3097 1187 3025 
Q 903 2953 641 2809 
L 641 3341 
Q 956 3463 1253 3523 
Q 1550 3584 1831 3584 
Q 2591 3584 2966 3190 
Q 3341 2797 3341 1997 
z
" transform="scale(0.015625)"/>
      <path id="DejaVuSans-6e" d="M 3513 2113 
L 3513 0 
L 2938 0 
L 2938 2094 
Q 2938 2591 2744 2837 
Q 2550 3084 2163 3084 
Q 1697 3084 1428 2787 
Q 1159 2491 1159 1978 
L 1159 0 
L 581 0 
L 581 3500 
L 1159 3500 
L 1159 2956 
Q 1366 3272 1645 3428 
Q 1925 3584 2291 3584 
Q 2894 3584 3203 3211 
Q 3513 2838 3513 2113 
z
" transform="scale(0.015625)"/>
      <path id="DejaVuSans-6f" d="M 1959 3097 
Q 1497 3097 1228 2736 
Q 959 2375 959 1747 
Q 959 1119 1226 758 
Q 1494 397 1959 397 
Q 2419 397 2687 759 
Q 2956 1122 2956 1747 
Q 2956 2369 2687 2733 
Q 2419 3097 1959 3097 
z
M 1959 3584 
Q 2709 3584 3137 3096 
Q 3566 2609 3566 1747 
Q 3566 888 3137 398 
Q 2709 -91 1959 -91 
Q 1206 -91 779 398 
Q 353 888 353 1747 
Q 353 2609 779 3096 
Q 1206 3584 1959 3584 
z
" transform="scale(0.015625)"/>
      <path id="DejaVuSans-64" d="M 2906 2969 
L 2906 4863 
L 3481 4863 
L 3481 0 
L 2906 0 
L 2906 525 
Q 2725 213 2448 61 
Q 2172 -91 1784 -91 
Q 1150 -91 751 415 
Q 353 922 353 1747 
Q 353 2572 751 3078 
Q 1150 3584 1784 3584 
Q 2172 3584 2448 3432 
Q 2725 3281 2906 2969 
z
M 947 1747 
Q 947 1113 1208 752 
Q 1469 391 1925 391 
Q 2381 391 2643 752 
Q 2906 1113 2906 1747 
Q 2906 2381 2643 2742 
Q 2381 3103 1925 3103 
Q 1469 3103 1208 2742 
Q 947 2381 947 1747 
z
" transform="scale(0.015625)"/>
      <path id="DejaVuSans-65" d="M 3597 1894 
L 3597 1613 
L 953 1613 
Q 991 1019 1311 708 
Q 1631 397 2203 397 
Q 2534 397 2845 478 
Q 3156 559 3463 722 
L 3463 178 
Q 3153 47 2828 -22 
Q 2503 -91 2169 -91 
Q 1331 -91 842 396 
Q 353 884 353 1716 
Q 353 2575 817 3079 
Q 1281 3584 2069 3584 
Q 2775 3584 3186 3129 
Q 3597 2675 3597 1894 
z
M 3022 2063 
Q 3016 2534 2758 2815 
Q 2500 3097 2075 3097 
Q 1594 3097 1305 2825 
Q 1016 2553 972 2059 
L 3022 2063 
z
" transform="scale(0.015625)"/>
     </defs>
     <use xlink:href="#DejaVuSans-61"/>
     <use xlink:href="#DejaVuSans-6e" x="61.279297"/>
     <use xlink:href="#DejaVuSans-6f" x="124.658203"/>
     <use xlink:href="#DejaVuSans-64" x="185.839844"/>
     <use xlink:href="#DejaVuSans-65" x="249.316406"/>
    </g>
   </g>
   <g id="text_10">
    <!-- seperator -->
    <g transform="translate(173.667128 28.570213) scale(0.1 -0.1)">
     <defs>
      <path id="DejaVuSans-73" d="M 2834 3397 
L 2834 2853 
Q 2591 2978 2328 3040 
Q 2066 3103 1784 3103 
Q 1356 3103 1142 2972 
Q 928 2841 928 2578 
Q 928 2378 1081 2264 
Q 1234 2150 1697 2047 
L 1894 2003 
Q 2506 1872 2764 1633 
Q 3022 1394 3022 966 
Q 3022 478 2636 193 
Q 2250 -91 1575 -91 
Q 1294 -91 989 -36 
Q 684 19 347 128 
L 347 722 
Q 666 556 975 473 
Q 1284 391 1588 391 
Q 1994 391 2212 530 
Q 2431 669 2431 922 
Q 2431 1156 2273 1281 
Q 2116 1406 1581 1522 
L 1381 1569 
Q 847 1681 609 1914 
Q 372 2147 372 2553 
Q 372 3047 722 3315 
Q 1072 3584 1716 3584 
Q 2034 3584 2315 3537 
Q 2597 3491 2834 3397 
z
" transform="scale(0.015625)"/>
      <path id="DejaVuSans-70" d="M 1159 525 
L 1159 -1331 
L 581 -1331 
L 581 3500 
L 1159 3500 
L 1159 2969 
Q 1341 3281 1617 3432 
Q 1894 3584 2278 3584 
Q 2916 3584 3314 3078 
Q 3713 2572 3713 1747 
Q 3713 922 3314 415 
Q 2916 -91 2278 -91 
Q 1894 -91 1617 61 
Q 1341 213 1159 525 
z
M 3116 1747 
Q 3116 2381 2855 2742 
Q 2594 3103 2138 3103 
Q 1681 3103 1420 2742 
Q 1159 2381 1159 1747 
Q 1159 1113 1420 752 
Q 1681 391 2138 391 
Q 2594 391 2855 752 
Q 3116 1113 3116 1747 
z
" transform="scale(0.015625)"/>
      <path id="DejaVuSans-72" d="M 2631 2963 
Q 2534 3019 2420 3045 
Q 2306 3072 2169 3072 
Q 1681 3072 1420 2755 
Q 1159 2438 1159 1844 
L 1159 0 
L 581 0 
L 581 3500 
L 1159 3500 
L 1159 2956 
Q 1341 3275 1631 3429 
Q 1922 3584 2338 3584 
Q 2397 3584 2469 3576 
Q 2541 3569 2628 3553 
L 2631 2963 
z
" transform="scale(0.015625)"/>
      <path id="DejaVuSans-74" d="M 1172 4494 
L 1172 3500 
L 2356 3500 
L 2356 3053 
L 1172 3053 
L 1172 1153 
Q 1172 725 1289 603 
Q 1406 481 1766 481 
L 2356 481 
L 2356 0 
L 1766 0 
Q 1100 0 847 248 
Q 594 497 594 1153 
L 594 3053 
L 172 3053 
L 172 3500 
L 594 3500 
L 594 4494 
L 1172 4494 
z
" transform="scale(0.015625)"/>
     </defs>
     <use xlink:href="#DejaVuSans-73"/>
     <use xlink:href="#DejaVuSans-65" x="52.099609"/>
     <use xlink:href="#DejaVuSans-70" x="113.623047"/>
     <use xlink:href="#DejaVuSans-65" x="177.099609"/>
     <use xlink:href="#DejaVuSans-72" x="238.623047"/>
     <use xlink:href="#DejaVuSans-61" x="279.736328"/>
     <use xlink:href="#DejaVuSans-74" x="341.015625"/>
     <use xlink:href="#DejaVuSans-6f" x="380.224609"/>
     <use xlink:href="#DejaVuSans-72" x="441.40625"/>
    </g>
   </g>
   <g id="text_11">
    <!-- cathode -->
    <g transform="translate(283.367553 28.570213) scale(0.1 -0.1)">
     <defs>
      <path id="DejaVuSans-63" d="M 3122 3366 
L 3122 2828 
Q 2878 2963 2633 3030 
Q 2388 3097 2138 3097 
Q 1578 3097 1268 2742 
Q 959 2388 959 1747 
Q 959 1106 1268 751 
Q 1578 397 2138 397 
Q 2388 397 2633 464 
Q 2878 531 3122 666 
L 3122 134 
Q 2881 22 2623 -34 
Q 2366 -91 2075 -91 
Q 1284 -91 818 406 
Q 353 903 353 1747 
Q 353 2603 823 3093 
Q 1294 3584 2113 3584 
Q 2378 3584 2631 3529 
Q 2884 3475 3122 3366 
z
" transform="scale(0.015625)"/>
      <path id="DejaVuSans-68" d="M 3513 2113 
L 3513 0 
L 2938 0 
L 2938 2094 
Q 2938 2591 2744 2837 
Q 2550 3084 2163 3084 
Q 1697 3084 1428 2787 
Q 1159 2491 1159 1978 
L 1159 0 
L 581 0 
L 581 4863 
L 1159 4863 
L 1159 2956 
Q 1366 3272 1645 3428 
Q 1925 3584 2291 3584 
Q 2894 3584 3203 3211 
Q 3513 2838 3513 2113 
z
" transform="scale(0.015625)"/>
     </defs>
     <use xlink:href="#DejaVuSans-63"/>
     <use xlink:href="#DejaVuSans-61" x="54.980469"/>
     <use xlink:href="#DejaVuSans-74" x="116.259766"/>
     <use xlink:href="#DejaVuSans-68" x="155.46875"/>
     <use xlink:href="#DejaVuSans-6f" x="218.847656"/>
     <use xlink:href="#DejaVuSans-64" x="280.029297"/>
     <use xlink:href="#DejaVuSans-65" x="343.505859"/>
    </g>
   </g>
  </g>
 </g>
 <defs>
  <clipPath id="pcd86a8c859">
   <rect x="26.925" y="7.2" width="334.8" height="71.234043"/>
  </clipPath>
 </defs>
</svg>
