<?xml version="1.0" encoding="utf-8" standalone="no"?>
<!DOCTYPE svg PUBLIC "-//W3C//DTD SVG 1.1//EN"
  "http://www.w3.org/Graphics/SVG/1.1/DTD/svg11.dtd">
<svg xmlns:xlink="http://www.w3.org/1999/xlink" width="396.340465pt" height="263.63625pt" viewBox="0 0 396.340465 263.63625" xmlns="http://www.w3.org/2000/svg" version="1.1">
 <metadata>
  <rdf:RDF xmlns:dc="http://purl.org/dc/elements/1.1/" xmlns:cc="http://creativecommons.org/ns#" xmlns:rdf="http://www.w3.org/1999/02/22-rdf-syntax-ns#">
   <cc:Work>
    <dc:type rdf:resource="http://purl.org/dc/dcmitype/StillImage"/>
    <dc:date>2024-05-08T18:20:15.229253</dc:date>
    <dc:format>image/svg+xml</dc:format>
    <dc:creator>
     <cc:Agent>
      <dc:title>Matplotlib v3.8.0, https://matplotlib.org/</dc:title>
     </cc:Agent>
    </dc:creator>
   </cc:Work>
  </rdf:RDF>
 </metadata>
 <defs>
  <style type="text/css">*{stroke-linejoin: round; stroke-linecap: butt}</style>
 </defs>
 <g id="figure_1">
  <g id="patch_1">
   <path d="M 0 263.63625 
L 396.340465 263.63625 
L 396.340465 0 
L 0 0 
z
" style="fill: #ffffff"/>
  </g>
  <g id="axes_1">
   <g id="patch_2">
    <path d="M 53.35 239.758125 
L 388.15 239.758125 
L 388.15 22.318125 
L 53.35 22.318125 
z
" style="fill: #ffffff"/>
   </g>
   <g id="matplotlib.axis_1">
    <g id="xtick_1">
     <g id="line2d_1">
      <defs>
       <path id="m18987d5616" d="M 0 0 
L 0 3.5 
" style="stroke: #000000; stroke-width: 0.8"/>
      </defs>
      <g>
       <use xlink:href="#m18987d5616" x="68.568182" y="239.758125" style="stroke: #000000; stroke-width: 0.8"/>
      </g>
     </g>
     <g id="text_1">
      <!-- 0 -->
      <g transform="translate(65.386932 254.356563) scale(0.1 -0.1)">
       <defs>
        <path id="DejaVuSans-30" d="M 2034 4250 
Q 1547 4250 1301 3770 
Q 1056 3291 1056 2328 
Q 1056 1369 1301 889 
Q 1547 409 2034 409 
Q 2525 409 2770 889 
Q 3016 1369 3016 2328 
Q 3016 3291 2770 3770 
Q 2525 4250 2034 4250 
z
M 2034 4750 
Q 2819 4750 3233 4129 
Q 3647 3509 3647 2328 
Q 3647 1150 3233 529 
Q 2819 -91 2034 -91 
Q 1250 -91 836 529 
Q 422 1150 422 2328 
Q 422 3509 836 4129 
Q 1250 4750 2034 4750 
z
" transform="scale(0.015625)"/>
       </defs>
       <use xlink:href="#DejaVuSans-30"/>
      </g>
     </g>
    </g>
    <g id="xtick_2">
     <g id="line2d_2">
      <g>
       <use xlink:href="#m18987d5616" x="113.000829" y="239.758125" style="stroke: #000000; stroke-width: 0.8"/>
      </g>
     </g>
     <g id="text_2">
      <!-- 20 -->
      <g transform="translate(106.638329 254.356563) scale(0.1 -0.1)">
       <defs>
        <path id="DejaVuSans-32" d="M 1228 531 
L 3431 531 
L 3431 0 
L 469 0 
L 469 531 
Q 828 903 1448 1529 
Q 2069 2156 2228 2338 
Q 2531 2678 2651 2914 
Q 2772 3150 2772 3378 
Q 2772 3750 2511 3984 
Q 2250 4219 1831 4219 
Q 1534 4219 1204 4116 
Q 875 4013 500 3803 
L 500 4441 
Q 881 4594 1212 4672 
Q 1544 4750 1819 4750 
Q 2544 4750 2975 4387 
Q 3406 4025 3406 3419 
Q 3406 3131 3298 2873 
Q 3191 2616 2906 2266 
Q 2828 2175 2409 1742 
Q 1991 1309 1228 531 
z
" transform="scale(0.015625)"/>
       </defs>
       <use xlink:href="#DejaVuSans-32"/>
       <use xlink:href="#DejaVuSans-30" x="63.623047"/>
      </g>
     </g>
    </g>
    <g id="xtick_3">
     <g id="line2d_3">
      <g>
       <use xlink:href="#m18987d5616" x="157.433477" y="239.758125" style="stroke: #000000; stroke-width: 0.8"/>
      </g>
     </g>
     <g id="text_3">
      <!-- 40 -->
      <g transform="translate(151.070977 254.356563) scale(0.1 -0.1)">
       <defs>
        <path id="DejaVuSans-34" d="M 2419 4116 
L 825 1625 
L 2419 1625 
L 2419 4116 
z
M 2253 4666 
L 3047 4666 
L 3047 1625 
L 3713 1625 
L 3713 1100 
L 3047 1100 
L 3047 0 
L 2419 0 
L 2419 1100 
L 313 1100 
L 313 1709 
L 2253 4666 
z
" transform="scale(0.015625)"/>
       </defs>
       <use xlink:href="#DejaVuSans-34"/>
       <use xlink:href="#DejaVuSans-30" x="63.623047"/>
      </g>
     </g>
    </g>
    <g id="xtick_4">
     <g id="line2d_4">
      <g>
       <use xlink:href="#m18987d5616" x="201.866125" y="239.758125" style="stroke: #000000; stroke-width: 0.8"/>
      </g>
     </g>
     <g id="text_4">
      <!-- 60 -->
      <g transform="translate(195.503625 254.356563) scale(0.1 -0.1)">
       <defs>
        <path id="DejaVuSans-36" d="M 2113 2584 
Q 1688 2584 1439 2293 
Q 1191 2003 1191 1497 
Q 1191 994 1439 701 
Q 1688 409 2113 409 
Q 2538 409 2786 701 
Q 3034 994 3034 1497 
Q 3034 2003 2786 2293 
Q 2538 2584 2113 2584 
z
M 3366 4563 
L 3366 3988 
Q 3128 4100 2886 4159 
Q 2644 4219 2406 4219 
Q 1781 4219 1451 3797 
Q 1122 3375 1075 2522 
Q 1259 2794 1537 2939 
Q 1816 3084 2150 3084 
Q 2853 3084 3261 2657 
Q 3669 2231 3669 1497 
Q 3669 778 3244 343 
Q 2819 -91 2113 -91 
Q 1303 -91 875 529 
Q 447 1150 447 2328 
Q 447 3434 972 4092 
Q 1497 4750 2381 4750 
Q 2619 4750 2861 4703 
Q 3103 4656 3366 4563 
z
" transform="scale(0.015625)"/>
       </defs>
       <use xlink:href="#DejaVuSans-36"/>
       <use xlink:href="#DejaVuSans-30" x="63.623047"/>
      </g>
     </g>
    </g>
    <g id="xtick_5">
     <g id="line2d_5">
      <g>
       <use xlink:href="#m18987d5616" x="246.298772" y="239.758125" style="stroke: #000000; stroke-width: 0.8"/>
      </g>
     </g>
     <g id="text_5">
      <!-- 80 -->
      <g transform="translate(239.936272 254.356563) scale(0.1 -0.1)">
       <defs>
        <path id="DejaVuSans-38" d="M 2034 2216 
Q 1584 2216 1326 1975 
Q 1069 1734 1069 1313 
Q 1069 891 1326 650 
Q 1584 409 2034 409 
Q 2484 409 2743 651 
Q 3003 894 3003 1313 
Q 3003 1734 2745 1975 
Q 2488 2216 2034 2216 
z
M 1403 2484 
Q 997 2584 770 2862 
Q 544 3141 544 3541 
Q 544 4100 942 4425 
Q 1341 4750 2034 4750 
Q 2731 4750 3128 4425 
Q 3525 4100 3525 3541 
Q 3525 3141 3298 2862 
Q 3072 2584 2669 2484 
Q 3125 2378 3379 2068 
Q 3634 1759 3634 1313 
Q 3634 634 3220 271 
Q 2806 -91 2034 -91 
Q 1263 -91 848 271 
Q 434 634 434 1313 
Q 434 1759 690 2068 
Q 947 2378 1403 2484 
z
M 1172 3481 
Q 1172 3119 1398 2916 
Q 1625 2713 2034 2713 
Q 2441 2713 2670 2916 
Q 2900 3119 2900 3481 
Q 2900 3844 2670 4047 
Q 2441 4250 2034 4250 
Q 1625 4250 1398 4047 
Q 1172 3844 1172 3481 
z
" transform="scale(0.015625)"/>
       </defs>
       <use xlink:href="#DejaVuSans-38"/>
       <use xlink:href="#DejaVuSans-30" x="63.623047"/>
      </g>
     </g>
    </g>
    <g id="xtick_6">
     <g id="line2d_6">
      <g>
       <use xlink:href="#m18987d5616" x="290.73142" y="239.758125" style="stroke: #000000; stroke-width: 0.8"/>
      </g>
     </g>
     <g id="text_6">
      <!-- 100 -->
      <g transform="translate(281.18767 254.356563) scale(0.1 -0.1)">
       <defs>
        <path id="DejaVuSans-31" d="M 794 531 
L 1825 531 
L 1825 4091 
L 703 3866 
L 703 4441 
L 1819 4666 
L 2450 4666 
L 2450 531 
L 3481 531 
L 3481 0 
L 794 0 
L 794 531 
z
" transform="scale(0.015625)"/>
       </defs>
       <use xlink:href="#DejaVuSans-31"/>
       <use xlink:href="#DejaVuSans-30" x="63.623047"/>
       <use xlink:href="#DejaVuSans-30" x="127.246094"/>
      </g>
     </g>
    </g>
    <g id="xtick_7">
     <g id="line2d_7">
      <g>
       <use xlink:href="#m18987d5616" x="335.164068" y="239.758125" style="stroke: #000000; stroke-width: 0.8"/>
      </g>
     </g>
     <g id="text_7">
      <!-- 120 -->
      <g transform="translate(325.620318 254.356563) scale(0.1 -0.1)">
       <use xlink:href="#DejaVuSans-31"/>
       <use xlink:href="#DejaVuSans-32" x="63.623047"/>
       <use xlink:href="#DejaVuSans-30" x="127.246094"/>
      </g>
     </g>
    </g>
    <g id="xtick_8">
     <g id="line2d_8">
      <g>
       <use xlink:href="#m18987d5616" x="379.596715" y="239.758125" style="stroke: #000000; stroke-width: 0.8"/>
      </g>
     </g>
     <g id="text_8">
      <!-- 140 -->
      <g transform="translate(370.052965 254.356563) scale(0.1 -0.1)">
       <use xlink:href="#DejaVuSans-31"/>
       <use xlink:href="#DejaVuSans-34" x="63.623047"/>
       <use xlink:href="#DejaVuSans-30" x="127.246094"/>
      </g>
     </g>
    </g>
   </g>
   <g id="matplotlib.axis_2">
    <g id="ytick_1">
     <g id="line2d_9">
      <defs>
       <path id="me3cc2c2bbe" d="M 0 0 
L -3.5 0 
" style="stroke: #000000; stroke-width: 0.8"/>
      </defs>
      <g>
       <use xlink:href="#me3cc2c2bbe" x="53.35" y="239.758125" style="stroke: #000000; stroke-width: 0.8"/>
      </g>
     </g>
     <g id="text_9">
      <!-- 920 -->
      <g transform="translate(27.2625 243.557344) scale(0.1 -0.1)">
       <defs>
        <path id="DejaVuSans-39" d="M 703 97 
L 703 672 
Q 941 559 1184 500 
Q 1428 441 1663 441 
Q 2288 441 2617 861 
Q 2947 1281 2994 2138 
Q 2813 1869 2534 1725 
Q 2256 1581 1919 1581 
Q 1219 1581 811 2004 
Q 403 2428 403 3163 
Q 403 3881 828 4315 
Q 1253 4750 1959 4750 
Q 2769 4750 3195 4129 
Q 3622 3509 3622 2328 
Q 3622 1225 3098 567 
Q 2575 -91 1691 -91 
Q 1453 -91 1209 -44 
Q 966 3 703 97 
z
M 1959 2075 
Q 2384 2075 2632 2365 
Q 2881 2656 2881 3163 
Q 2881 3666 2632 3958 
Q 2384 4250 1959 4250 
Q 1534 4250 1286 3958 
Q 1038 3666 1038 3163 
Q 1038 2656 1286 2365 
Q 1534 2075 1959 2075 
z
" transform="scale(0.015625)"/>
       </defs>
       <use xlink:href="#DejaVuSans-39"/>
       <use xlink:href="#DejaVuSans-32" x="63.623047"/>
       <use xlink:href="#DejaVuSans-30" x="127.246094"/>
      </g>
     </g>
    </g>
    <g id="ytick_2">
     <g id="line2d_10">
      <g>
       <use xlink:href="#me3cc2c2bbe" x="53.35" y="212.578125" style="stroke: #000000; stroke-width: 0.8"/>
      </g>
     </g>
     <g id="text_10">
      <!-- 940 -->
      <g transform="translate(27.2625 216.377344) scale(0.1 -0.1)">
       <use xlink:href="#DejaVuSans-39"/>
       <use xlink:href="#DejaVuSans-34" x="63.623047"/>
       <use xlink:href="#DejaVuSans-30" x="127.246094"/>
      </g>
     </g>
    </g>
    <g id="ytick_3">
     <g id="line2d_11">
      <g>
       <use xlink:href="#me3cc2c2bbe" x="53.35" y="185.398125" style="stroke: #000000; stroke-width: 0.8"/>
      </g>
     </g>
     <g id="text_11">
      <!-- 960 -->
      <g transform="translate(27.2625 189.197344) scale(0.1 -0.1)">
       <use xlink:href="#DejaVuSans-39"/>
       <use xlink:href="#DejaVuSans-36" x="63.623047"/>
       <use xlink:href="#DejaVuSans-30" x="127.246094"/>
      </g>
     </g>
    </g>
    <g id="ytick_4">
     <g id="line2d_12">
      <g>
       <use xlink:href="#me3cc2c2bbe" x="53.35" y="158.218125" style="stroke: #000000; stroke-width: 0.8"/>
      </g>
     </g>
     <g id="text_12">
      <!-- 980 -->
      <g transform="translate(27.2625 162.017344) scale(0.1 -0.1)">
       <use xlink:href="#DejaVuSans-39"/>
       <use xlink:href="#DejaVuSans-38" x="63.623047"/>
       <use xlink:href="#DejaVuSans-30" x="127.246094"/>
      </g>
     </g>
    </g>
    <g id="ytick_5">
     <g id="line2d_13">
      <g>
       <use xlink:href="#me3cc2c2bbe" x="53.35" y="131.038125" style="stroke: #000000; stroke-width: 0.8"/>
      </g>
     </g>
     <g id="text_13">
      <!-- 1000 -->
      <g transform="translate(20.9 134.837344) scale(0.1 -0.1)">
       <use xlink:href="#DejaVuSans-31"/>
       <use xlink:href="#DejaVuSans-30" x="63.623047"/>
       <use xlink:href="#DejaVuSans-30" x="127.246094"/>
       <use xlink:href="#DejaVuSans-30" x="190.869141"/>
      </g>
     </g>
    </g>
    <g id="ytick_6">
     <g id="line2d_14">
      <g>
       <use xlink:href="#me3cc2c2bbe" x="53.35" y="103.858125" style="stroke: #000000; stroke-width: 0.8"/>
      </g>
     </g>
     <g id="text_14">
      <!-- 1020 -->
      <g transform="translate(20.9 107.657344) scale(0.1 -0.1)">
       <use xlink:href="#DejaVuSans-31"/>
       <use xlink:href="#DejaVuSans-30" x="63.623047"/>
       <use xlink:href="#DejaVuSans-32" x="127.246094"/>
       <use xlink:href="#DejaVuSans-30" x="190.869141"/>
      </g>
     </g>
    </g>
    <g id="ytick_7">
     <g id="line2d_15">
      <g>
       <use xlink:href="#me3cc2c2bbe" x="53.35" y="76.678125" style="stroke: #000000; stroke-width: 0.8"/>
      </g>
     </g>
     <g id="text_15">
      <!-- 1040 -->
      <g transform="translate(20.9 80.477344) scale(0.1 -0.1)">
       <use xlink:href="#DejaVuSans-31"/>
       <use xlink:href="#DejaVuSans-30" x="63.623047"/>
       <use xlink:href="#DejaVuSans-34" x="127.246094"/>
       <use xlink:href="#DejaVuSans-30" x="190.869141"/>
      </g>
     </g>
    </g>
    <g id="ytick_8">
     <g id="line2d_16">
      <g>
       <use xlink:href="#me3cc2c2bbe" x="53.35" y="49.498125" style="stroke: #000000; stroke-width: 0.8"/>
      </g>
     </g>
     <g id="text_16">
      <!-- 1060 -->
      <g transform="translate(20.9 53.297344) scale(0.1 -0.1)">
       <use xlink:href="#DejaVuSans-31"/>
       <use xlink:href="#DejaVuSans-30" x="63.623047"/>
       <use xlink:href="#DejaVuSans-36" x="127.246094"/>
       <use xlink:href="#DejaVuSans-30" x="190.869141"/>
      </g>
     </g>
    </g>
    <g id="ytick_9">
     <g id="line2d_17">
      <g>
       <use xlink:href="#me3cc2c2bbe" x="53.35" y="22.318125" style="stroke: #000000; stroke-width: 0.8"/>
      </g>
     </g>
     <g id="text_17">
      <!-- 1080 -->
      <g transform="translate(20.9 26.117344) scale(0.1 -0.1)">
       <use xlink:href="#DejaVuSans-31"/>
       <use xlink:href="#DejaVuSans-30" x="63.623047"/>
       <use xlink:href="#DejaVuSans-38" x="127.246094"/>
       <use xlink:href="#DejaVuSans-30" x="190.869141"/>
      </g>
     </g>
    </g>
    <g id="text_18">
     <!-- electrolyte phase concentration $c_e$ -->
     <g transform="translate(14.8 217.338125) rotate(-90) scale(0.1 -0.1)">
      <defs>
       <path id="DejaVuSans-65" d="M 3597 1894 
L 3597 1613 
L 953 1613 
Q 991 1019 1311 708 
Q 1631 397 2203 397 
Q 2534 397 2845 478 
Q 3156 559 3463 722 
L 3463 178 
Q 3153 47 2828 -22 
Q 2503 -91 2169 -91 
Q 1331 -91 842 396 
Q 353 884 353 1716 
Q 353 2575 817 3079 
Q 1281 3584 2069 3584 
Q 2775 3584 3186 3129 
Q 3597 2675 3597 1894 
z
M 3022 2063 
Q 3016 2534 2758 2815 
Q 2500 3097 2075 3097 
Q 1594 3097 1305 2825 
Q 1016 2553 972 2059 
L 3022 2063 
z
" transform="scale(0.015625)"/>
       <path id="DejaVuSans-6c" d="M 603 4863 
L 1178 4863 
L 1178 0 
L 603 0 
L 603 4863 
z
" transform="scale(0.015625)"/>
       <path id="DejaVuSans-63" d="M 3122 3366 
L 3122 2828 
Q 2878 2963 2633 3030 
Q 2388 3097 2138 3097 
Q 1578 3097 1268 2742 
Q 959 2388 959 1747 
Q 959 1106 1268 751 
Q 1578 397 2138 397 
Q 2388 397 2633 464 
Q 2878 531 3122 666 
L 3122 134 
Q 2881 22 2623 -34 
Q 2366 -91 2075 -91 
Q 1284 -91 818 406 
Q 353 903 353 1747 
Q 353 2603 823 3093 
Q 1294 3584 2113 3584 
Q 2378 3584 2631 3529 
Q 2884 3475 3122 3366 
z
" transform="scale(0.015625)"/>
       <path id="DejaVuSans-74" d="M 1172 4494 
L 1172 3500 
L 2356 3500 
L 2356 3053 
L 1172 3053 
L 1172 1153 
Q 1172 725 1289 603 
Q 1406 481 1766 481 
L 2356 481 
L 2356 0 
L 1766 0 
Q 1100 0 847 248 
Q 594 497 594 1153 
L 594 3053 
L 172 3053 
L 172 3500 
L 594 3500 
L 594 4494 
L 1172 4494 
z
" transform="scale(0.015625)"/>
       <path id="DejaVuSans-72" d="M 2631 2963 
Q 2534 3019 2420 3045 
Q 2306 3072 2169 3072 
Q 1681 3072 1420 2755 
Q 1159 2438 1159 1844 
L 1159 0 
L 581 0 
L 581 3500 
L 1159 3500 
L 1159 2956 
Q 1341 3275 1631 3429 
Q 1922 3584 2338 3584 
Q 2397 3584 2469 3576 
Q 2541 3569 2628 3553 
L 2631 2963 
z
" transform="scale(0.015625)"/>
       <path id="DejaVuSans-6f" d="M 1959 3097 
Q 1497 3097 1228 2736 
Q 959 2375 959 1747 
Q 959 1119 1226 758 
Q 1494 397 1959 397 
Q 2419 397 2687 759 
Q 2956 1122 2956 1747 
Q 2956 2369 2687 2733 
Q 2419 3097 1959 3097 
z
M 1959 3584 
Q 2709 3584 3137 3096 
Q 3566 2609 3566 1747 
Q 3566 888 3137 398 
Q 2709 -91 1959 -91 
Q 1206 -91 779 398 
Q 353 888 353 1747 
Q 353 2609 779 3096 
Q 1206 3584 1959 3584 
z
" transform="scale(0.015625)"/>
       <path id="DejaVuSans-79" d="M 2059 -325 
Q 1816 -950 1584 -1140 
Q 1353 -1331 966 -1331 
L 506 -1331 
L 506 -850 
L 844 -850 
Q 1081 -850 1212 -737 
Q 1344 -625 1503 -206 
L 1606 56 
L 191 3500 
L 800 3500 
L 1894 763 
L 2988 3500 
L 3597 3500 
L 2059 -325 
z
" transform="scale(0.015625)"/>
       <path id="DejaVuSans-20" transform="scale(0.015625)"/>
       <path id="DejaVuSans-70" d="M 1159 525 
L 1159 -1331 
L 581 -1331 
L 581 3500 
L 1159 3500 
L 1159 2969 
Q 1341 3281 1617 3432 
Q 1894 3584 2278 3584 
Q 2916 3584 3314 3078 
Q 3713 2572 3713 1747 
Q 3713 922 3314 415 
Q 2916 -91 2278 -91 
Q 1894 -91 1617 61 
Q 1341 213 1159 525 
z
M 3116 1747 
Q 3116 2381 2855 2742 
Q 2594 3103 2138 3103 
Q 1681 3103 1420 2742 
Q 1159 2381 1159 1747 
Q 1159 1113 1420 752 
Q 1681 391 2138 391 
Q 2594 391 2855 752 
Q 3116 1113 3116 1747 
z
" transform="scale(0.015625)"/>
       <path id="DejaVuSans-68" d="M 3513 2113 
L 3513 0 
L 2938 0 
L 2938 2094 
Q 2938 2591 2744 2837 
Q 2550 3084 2163 3084 
Q 1697 3084 1428 2787 
Q 1159 2491 1159 1978 
L 1159 0 
L 581 0 
L 581 4863 
L 1159 4863 
L 1159 2956 
Q 1366 3272 1645 3428 
Q 1925 3584 2291 3584 
Q 2894 3584 3203 3211 
Q 3513 2838 3513 2113 
z
" transform="scale(0.015625)"/>
       <path id="DejaVuSans-61" d="M 2194 1759 
Q 1497 1759 1228 1600 
Q 959 1441 959 1056 
Q 959 750 1161 570 
Q 1363 391 1709 391 
Q 2188 391 2477 730 
Q 2766 1069 2766 1631 
L 2766 1759 
L 2194 1759 
z
M 3341 1997 
L 3341 0 
L 2766 0 
L 2766 531 
Q 2569 213 2275 61 
Q 1981 -91 1556 -91 
Q 1019 -91 701 211 
Q 384 513 384 1019 
Q 384 1609 779 1909 
Q 1175 2209 1959 2209 
L 2766 2209 
L 2766 2266 
Q 2766 2663 2505 2880 
Q 2244 3097 1772 3097 
Q 1472 3097 1187 3025 
Q 903 2953 641 2809 
L 641 3341 
Q 956 3463 1253 3523 
Q 1550 3584 1831 3584 
Q 2591 3584 2966 3190 
Q 3341 2797 3341 1997 
z
" transform="scale(0.015625)"/>
       <path id="DejaVuSans-73" d="M 2834 3397 
L 2834 2853 
Q 2591 2978 2328 3040 
Q 2066 3103 1784 3103 
Q 1356 3103 1142 2972 
Q 928 2841 928 2578 
Q 928 2378 1081 2264 
Q 1234 2150 1697 2047 
L 1894 2003 
Q 2506 1872 2764 1633 
Q 3022 1394 3022 966 
Q 3022 478 2636 193 
Q 2250 -91 1575 -91 
Q 1294 -91 989 -36 
Q 684 19 347 128 
L 347 722 
Q 666 556 975 473 
Q 1284 391 1588 391 
Q 1994 391 2212 530 
Q 2431 669 2431 922 
Q 2431 1156 2273 1281 
Q 2116 1406 1581 1522 
L 1381 1569 
Q 847 1681 609 1914 
Q 372 2147 372 2553 
Q 372 3047 722 3315 
Q 1072 3584 1716 3584 
Q 2034 3584 2315 3537 
Q 2597 3491 2834 3397 
z
" transform="scale(0.015625)"/>
       <path id="DejaVuSans-6e" d="M 3513 2113 
L 3513 0 
L 2938 0 
L 2938 2094 
Q 2938 2591 2744 2837 
Q 2550 3084 2163 3084 
Q 1697 3084 1428 2787 
Q 1159 2491 1159 1978 
L 1159 0 
L 581 0 
L 581 3500 
L 1159 3500 
L 1159 2956 
Q 1366 3272 1645 3428 
Q 1925 3584 2291 3584 
Q 2894 3584 3203 3211 
Q 3513 2838 3513 2113 
z
" transform="scale(0.015625)"/>
       <path id="DejaVuSans-69" d="M 603 3500 
L 1178 3500 
L 1178 0 
L 603 0 
L 603 3500 
z
M 603 4863 
L 1178 4863 
L 1178 4134 
L 603 4134 
L 603 4863 
z
" transform="scale(0.015625)"/>
       <path id="DejaVuSans-Oblique-63" d="M 3431 3366 
L 3316 2797 
Q 3109 2947 2876 3022 
Q 2644 3097 2394 3097 
Q 2119 3097 1870 3000 
Q 1622 2903 1453 2725 
Q 1184 2453 1037 2087 
Q 891 1722 891 1331 
Q 891 859 1127 628 
Q 1363 397 1844 397 
Q 2081 397 2348 469 
Q 2616 541 2906 684 
L 2797 116 
Q 2547 13 2283 -39 
Q 2019 -91 1741 -91 
Q 1044 -91 669 257 
Q 294 606 294 1253 
Q 294 1797 489 2255 
Q 684 2713 1069 3078 
Q 1331 3328 1684 3456 
Q 2038 3584 2456 3584 
Q 2700 3584 2940 3529 
Q 3181 3475 3431 3366 
z
" transform="scale(0.015625)"/>
       <path id="DejaVuSans-Oblique-65" d="M 3078 2063 
Q 3088 2113 3092 2166 
Q 3097 2219 3097 2272 
Q 3097 2653 2873 2875 
Q 2650 3097 2266 3097 
Q 1838 3097 1509 2826 
Q 1181 2556 1013 2059 
L 3078 2063 
z
M 3578 1613 
L 903 1613 
Q 884 1494 878 1425 
Q 872 1356 872 1306 
Q 872 872 1139 634 
Q 1406 397 1894 397 
Q 2269 397 2603 481 
Q 2938 566 3225 728 
L 3116 159 
Q 2806 34 2476 -28 
Q 2147 -91 1806 -91 
Q 1078 -91 686 257 
Q 294 606 294 1247 
Q 294 1794 489 2264 
Q 684 2734 1063 3103 
Q 1306 3334 1642 3459 
Q 1978 3584 2356 3584 
Q 2950 3584 3301 3228 
Q 3653 2872 3653 2272 
Q 3653 2128 3634 1964 
Q 3616 1800 3578 1613 
z
" transform="scale(0.015625)"/>
      </defs>
      <use xlink:href="#DejaVuSans-65" transform="translate(0 0.015625)"/>
      <use xlink:href="#DejaVuSans-6c" transform="translate(61.523438 0.015625)"/>
      <use xlink:href="#DejaVuSans-65" transform="translate(89.306641 0.015625)"/>
      <use xlink:href="#DejaVuSans-63" transform="translate(150.830078 0.015625)"/>
      <use xlink:href="#DejaVuSans-74" transform="translate(205.810547 0.015625)"/>
      <use xlink:href="#DejaVuSans-72" transform="translate(245.019531 0.015625)"/>
      <use xlink:href="#DejaVuSans-6f" transform="translate(286.132812 0.015625)"/>
      <use xlink:href="#DejaVuSans-6c" transform="translate(347.314453 0.015625)"/>
      <use xlink:href="#DejaVuSans-79" transform="translate(375.097656 0.015625)"/>
      <use xlink:href="#DejaVuSans-74" transform="translate(434.277344 0.015625)"/>
      <use xlink:href="#DejaVuSans-65" transform="translate(473.486328 0.015625)"/>
      <use xlink:href="#DejaVuSans-20" transform="translate(535.009766 0.015625)"/>
      <use xlink:href="#DejaVuSans-70" transform="translate(566.796875 0.015625)"/>
      <use xlink:href="#DejaVuSans-68" transform="translate(630.273438 0.015625)"/>
      <use xlink:href="#DejaVuSans-61" transform="translate(693.652344 0.015625)"/>
      <use xlink:href="#DejaVuSans-73" transform="translate(754.931641 0.015625)"/>
      <use xlink:href="#DejaVuSans-65" transform="translate(807.03125 0.015625)"/>
      <use xlink:href="#DejaVuSans-20" transform="translate(868.554688 0.015625)"/>
      <use xlink:href="#DejaVuSans-63" transform="translate(900.341797 0.015625)"/>
      <use xlink:href="#DejaVuSans-6f" transform="translate(955.322266 0.015625)"/>
      <use xlink:href="#DejaVuSans-6e" transform="translate(1016.503906 0.015625)"/>
      <use xlink:href="#DejaVuSans-63" transform="translate(1079.882812 0.015625)"/>
      <use xlink:href="#DejaVuSans-65" transform="translate(1134.863281 0.015625)"/>
      <use xlink:href="#DejaVuSans-6e" transform="translate(1196.386719 0.015625)"/>
      <use xlink:href="#DejaVuSans-74" transform="translate(1259.765625 0.015625)"/>
      <use xlink:href="#DejaVuSans-72" transform="translate(1298.974609 0.015625)"/>
      <use xlink:href="#DejaVuSans-61" transform="translate(1340.087891 0.015625)"/>
      <use xlink:href="#DejaVuSans-74" transform="translate(1401.367188 0.015625)"/>
      <use xlink:href="#DejaVuSans-69" transform="translate(1440.576172 0.015625)"/>
      <use xlink:href="#DejaVuSans-6f" transform="translate(1468.359375 0.015625)"/>
      <use xlink:href="#DejaVuSans-6e" transform="translate(1529.541016 0.015625)"/>
      <use xlink:href="#DejaVuSans-20" transform="translate(1592.919922 0.015625)"/>
      <use xlink:href="#DejaVuSans-Oblique-63" transform="translate(1624.707031 0.015625)"/>
      <use xlink:href="#DejaVuSans-Oblique-65" transform="translate(1679.6875 -16.390625) scale(0.7)"/>
     </g>
    </g>
   </g>
   <g id="line2d_18">
    <path d="M 68.568182 60.853075 
L 70.789814 124.397196 
L 73.011447 124.397196 
L 75.233079 60.853075 
L 77.454711 134.523165 
L 79.676344 134.523165 
L 81.897976 206.97165 
L 84.119608 206.97165 
L 86.341241 60.893548 
L 88.562873 61.026025 
L 90.784506 61.287837 
L 93.006138 61.733131 
L 95.22777 62.422841 
L 97.449403 63.41787 
L 99.671035 64.774494 
L 101.892668 66.541375 
L 104.1143 68.757749 
L 106.335932 71.452531 
L 108.557565 74.644097 
L 110.779197 78.340584 
L 113.000829 82.540579 
L 115.222462 87.234053 
L 117.444094 92.403463 
L 119.665727 98.024928 
L 121.887359 104.069419 
L 124.108991 110.503909 
L 126.330624 117.29246 
L 128.552256 60.893548 
L 130.773889 61.026025 
L 132.995521 61.287837 
L 135.217153 61.733131 
L 137.438786 62.422841 
L 139.660418 63.41787 
L 141.88205 64.774494 
L 144.103683 66.541375 
L 146.325315 68.757749 
L 148.546948 71.452531 
L 150.76858 74.644097 
L 152.990212 78.340584 
L 155.211845 82.540579 
L 157.433477 87.234053 
L 159.655109 92.403463 
L 161.876742 98.024928 
L 164.098374 104.069419 
L 166.320007 110.503909 
L 168.541639 117.29246 
L 170.763271 60.853075 
L 172.984904 124.397196 
L 175.206536 126.02228 
L 177.428169 128.256006 
L 179.649801 130.743293 
L 181.871433 132.942649 
L 184.093066 126.02228 
L 186.314698 128.256006 
L 188.53633 130.743293 
L 190.757963 132.942649 
L 192.979595 134.523165 
L 197.42286 148.495461 
L 201.866125 161.335408 
L 204.087757 167.248247 
L 206.30939 172.783535 
L 208.531022 177.916047 
L 210.752654 182.625156 
L 212.974287 186.895727 
L 215.195919 190.718911 
L 217.417551 194.092782 
L 219.639184 197.022728 
L 221.860816 199.521467 
L 224.082449 201.608597 
L 226.304081 203.309503 
L 228.525713 204.653454 
L 230.747346 205.670633 
L 232.968978 206.387782 
L 235.19061 206.821953 
L 237.412243 141.633632 
L 241.855508 155.07392 
L 244.07714 161.335408 
L 246.298772 167.248247 
L 248.520405 172.783535 
L 250.742037 177.916047 
L 252.96367 182.625156 
L 255.185302 186.895727 
L 257.406934 190.718911 
L 259.628567 194.092782 
L 261.850199 197.022728 
L 264.071831 199.521467 
L 266.293464 201.608597 
L 268.515096 203.309503 
L 270.736729 204.653454 
L 272.958361 205.670633 
L 275.179993 206.387782 
L 277.401626 206.821953 
L 279.623258 206.97165 
L 281.844891 60.893548 
L 284.066523 61.026025 
L 286.288155 61.287837 
L 288.509788 61.733131 
L 290.73142 62.422841 
L 292.953052 63.41787 
L 295.174685 64.774494 
L 297.396317 66.541375 
L 299.61795 68.757749 
L 301.839582 71.452531 
L 304.061214 74.644097 
L 306.282847 78.340584 
L 308.504479 82.540579 
L 310.726111 87.234053 
L 312.947744 92.403463 
L 315.169376 98.024928 
L 317.391009 104.069419 
L 319.612641 110.503909 
L 321.834273 117.29246 
L 324.055906 126.02228 
L 326.277538 128.256006 
L 328.499171 130.743293 
L 330.720803 132.942649 
L 332.942435 141.633632 
L 337.3857 155.07392 
L 339.607332 161.335408 
L 341.828965 167.248247 
L 344.050597 172.783535 
L 346.27223 177.916047 
L 348.493862 182.625156 
L 350.715494 186.895727 
L 352.937127 190.718911 
L 355.158759 194.092782 
L 357.380392 197.022728 
L 359.602024 199.521467 
L 361.823656 201.608597 
L 364.045289 203.309503 
L 366.266921 204.653454 
L 368.488553 205.670633 
L 370.710186 206.387782 
L 372.931818 206.821953 
L 372.931818 206.821953 
" clip-path="url(#p3ce6ec995c)" style="fill: none; stroke: #ff0000; stroke-width: 1.5; stroke-linecap: square"/>
   </g>
   <g id="line2d_19">
    <path d="M 68.568182 60.853075 
L 70.789814 124.397196 
L 73.011447 124.397196 
L 75.233079 60.853075 
L 77.454711 134.523165 
L 79.676344 134.523165 
L 81.897976 206.97165 
L 84.119608 206.97165 
L 86.341241 60.893548 
L 88.562873 61.026025 
L 90.784506 61.287837 
L 93.006138 61.733131 
L 95.22777 62.422841 
L 97.449403 63.41787 
L 99.671035 64.774494 
L 101.892668 66.541375 
L 104.1143 68.757749 
L 106.335932 71.452531 
L 108.557565 74.644097 
L 110.779197 78.340584 
L 113.000829 82.540579 
L 115.222462 87.234053 
L 117.444094 92.403463 
L 119.665727 98.024928 
L 121.887359 104.069419 
L 124.108991 110.503909 
L 126.330624 117.29246 
L 128.552256 60.893548 
L 130.773889 61.026025 
L 132.995521 61.287837 
L 135.217153 61.733131 
L 137.438786 62.422841 
L 139.660418 63.41787 
L 141.88205 64.774494 
L 144.103683 66.541375 
L 146.325315 68.757749 
L 148.546948 71.452531 
L 150.76858 74.644097 
L 152.990212 78.340584 
L 155.211845 82.540579 
L 157.433477 87.234053 
L 159.655109 92.403463 
L 161.876742 98.024928 
L 164.098374 104.069419 
L 166.320007 110.503909 
L 168.541639 117.29246 
L 170.763271 60.853075 
L 172.984904 124.397196 
L 175.206536 126.02228 
L 177.428169 128.256006 
L 179.649801 130.743293 
L 181.871433 132.942649 
L 184.093066 126.02228 
L 186.314698 128.256006 
L 188.53633 130.743293 
L 190.757963 132.942649 
L 192.979595 134.523165 
L 197.42286 148.495461 
L 201.866125 161.335408 
L 204.087757 167.248247 
L 206.30939 172.783535 
L 208.531022 177.916047 
L 210.752654 182.625156 
L 212.974287 186.895727 
L 215.195919 190.718911 
L 217.417551 194.092782 
L 219.639184 197.022728 
L 221.860816 199.521467 
L 224.082449 201.608597 
L 226.304081 203.309503 
L 228.525713 204.653454 
L 230.747346 205.670633 
L 232.968978 206.387782 
L 235.19061 206.821953 
L 237.412243 141.633632 
L 241.855508 155.07392 
L 244.07714 161.335408 
L 246.298772 167.248247 
L 248.520405 172.783535 
L 250.742037 177.916047 
L 252.96367 182.625156 
L 255.185302 186.895727 
L 257.406934 190.718911 
L 259.628567 194.092782 
L 261.850199 197.022728 
L 264.071831 199.521467 
L 266.293464 201.608597 
L 268.515096 203.309503 
L 270.736729 204.653454 
L 272.958361 205.670633 
L 275.179993 206.387782 
L 277.401626 206.821953 
L 279.623258 206.97165 
L 281.844891 60.893548 
L 284.066523 61.026025 
L 286.288155 61.287837 
L 288.509788 61.733131 
L 290.73142 62.422841 
L 292.953052 63.41787 
L 295.174685 64.774494 
L 297.396317 66.541375 
L 299.61795 68.757749 
L 301.839582 71.452531 
L 304.061214 74.644097 
L 306.282847 78.340584 
L 308.504479 82.540579 
L 310.726111 87.234053 
L 312.947744 92.403463 
L 315.169376 98.024928 
L 317.391009 104.069419 
L 319.612641 110.503909 
L 321.834273 117.29246 
L 324.055906 126.02228 
L 326.277538 128.256006 
L 328.499171 130.743293 
L 330.720803 132.942649 
L 332.942435 141.633632 
L 337.3857 155.07392 
L 339.607332 161.335408 
L 341.828965 167.248247 
L 344.050597 172.783535 
L 346.27223 177.916047 
L 348.493862 182.625156 
L 350.715494 186.895727 
L 352.937127 190.718911 
L 355.158759 194.092782 
L 357.380392 197.022728 
L 359.602024 199.521467 
L 361.823656 201.608597 
L 364.045289 203.309503 
L 366.266921 204.653454 
L 368.488553 205.670633 
L 370.710186 206.387782 
L 372.931818 206.821953 
L 372.931818 206.821953 
" clip-path="url(#p3ce6ec995c)" style="fill: none; stroke-dasharray: 5.55,2.4; stroke-dashoffset: 0; stroke: #0000ff; stroke-width: 1.5"/>
   </g>
   <g id="patch_3">
    <path d="M 53.35 239.758125 
L 53.35 22.318125 
" style="fill: none; stroke: #000000; stroke-width: 0.8; stroke-linejoin: miter; stroke-linecap: square"/>
   </g>
   <g id="patch_4">
    <path d="M 388.15 239.758125 
L 388.15 22.318125 
" style="fill: none; stroke: #000000; stroke-width: 0.8; stroke-linejoin: miter; stroke-linecap: square"/>
   </g>
   <g id="patch_5">
    <path d="M 53.35 239.758125 
L 388.15 239.758125 
" style="fill: none; stroke: #000000; stroke-width: 0.8; stroke-linejoin: miter; stroke-linecap: square"/>
   </g>
   <g id="patch_6">
    <path d="M 53.35 22.318125 
L 388.15 22.318125 
" style="fill: none; stroke: #000000; stroke-width: 0.8; stroke-linejoin: miter; stroke-linecap: square"/>
   </g>
   <g id="text_19">
    <!-- Max relative error:0.00000000% -->
    <g transform="translate(113.000829 49.498125) scale(0.1 -0.1)">
     <defs>
      <path id="DejaVuSans-4d" d="M 628 4666 
L 1569 4666 
L 2759 1491 
L 3956 4666 
L 4897 4666 
L 4897 0 
L 4281 0 
L 4281 4097 
L 3078 897 
L 2444 897 
L 1241 4097 
L 1241 0 
L 628 0 
L 628 4666 
z
" transform="scale(0.015625)"/>
      <path id="DejaVuSans-78" d="M 3513 3500 
L 2247 1797 
L 3578 0 
L 2900 0 
L 1881 1375 
L 863 0 
L 184 0 
L 1544 1831 
L 300 3500 
L 978 3500 
L 1906 2253 
L 2834 3500 
L 3513 3500 
z
" transform="scale(0.015625)"/>
      <path id="DejaVuSans-76" d="M 191 3500 
L 800 3500 
L 1894 563 
L 2988 3500 
L 3597 3500 
L 2284 0 
L 1503 0 
L 191 3500 
z
" transform="scale(0.015625)"/>
      <path id="DejaVuSans-3a" d="M 750 794 
L 1409 794 
L 1409 0 
L 750 0 
L 750 794 
z
M 750 3309 
L 1409 3309 
L 1409 2516 
L 750 2516 
L 750 3309 
z
" transform="scale(0.015625)"/>
      <path id="DejaVuSans-2e" d="M 684 794 
L 1344 794 
L 1344 0 
L 684 0 
L 684 794 
z
" transform="scale(0.015625)"/>
      <path id="DejaVuSans-25" d="M 4653 2053 
Q 4381 2053 4226 1822 
Q 4072 1591 4072 1178 
Q 4072 772 4226 539 
Q 4381 306 4653 306 
Q 4919 306 5073 539 
Q 5228 772 5228 1178 
Q 5228 1588 5073 1820 
Q 4919 2053 4653 2053 
z
M 4653 2450 
Q 5147 2450 5437 2106 
Q 5728 1763 5728 1178 
Q 5728 594 5436 251 
Q 5144 -91 4653 -91 
Q 4153 -91 3862 251 
Q 3572 594 3572 1178 
Q 3572 1766 3864 2108 
Q 4156 2450 4653 2450 
z
M 1428 4353 
Q 1159 4353 1004 4120 
Q 850 3888 850 3481 
Q 850 3069 1003 2837 
Q 1156 2606 1428 2606 
Q 1700 2606 1854 2837 
Q 2009 3069 2009 3481 
Q 2009 3884 1853 4118 
Q 1697 4353 1428 4353 
z
M 4250 4750 
L 4750 4750 
L 1831 -91 
L 1331 -91 
L 4250 4750 
z
M 1428 4750 
Q 1922 4750 2215 4408 
Q 2509 4066 2509 3481 
Q 2509 2891 2217 2550 
Q 1925 2209 1428 2209 
Q 931 2209 642 2551 
Q 353 2894 353 3481 
Q 353 4063 643 4406 
Q 934 4750 1428 4750 
z
" transform="scale(0.015625)"/>
     </defs>
     <use xlink:href="#DejaVuSans-4d"/>
     <use xlink:href="#DejaVuSans-61" x="86.279297"/>
     <use xlink:href="#DejaVuSans-78" x="147.558594"/>
     <use xlink:href="#DejaVuSans-20" x="206.738281"/>
     <use xlink:href="#DejaVuSans-72" x="238.525391"/>
     <use xlink:href="#DejaVuSans-65" x="277.388672"/>
     <use xlink:href="#DejaVuSans-6c" x="338.912109"/>
     <use xlink:href="#DejaVuSans-61" x="366.695312"/>
     <use xlink:href="#DejaVuSans-74" x="427.974609"/>
     <use xlink:href="#DejaVuSans-69" x="467.183594"/>
     <use xlink:href="#DejaVuSans-76" x="494.966797"/>
     <use xlink:href="#DejaVuSans-65" x="554.146484"/>
     <use xlink:href="#DejaVuSans-20" x="615.669922"/>
     <use xlink:href="#DejaVuSans-65" x="647.457031"/>
     <use xlink:href="#DejaVuSans-72" x="708.980469"/>
     <use xlink:href="#DejaVuSans-72" x="748.34375"/>
     <use xlink:href="#DejaVuSans-6f" x="787.207031"/>
     <use xlink:href="#DejaVuSans-72" x="848.388672"/>
     <use xlink:href="#DejaVuSans-3a" x="887.751953"/>
     <use xlink:href="#DejaVuSans-30" x="921.443359"/>
     <use xlink:href="#DejaVuSans-2e" x="985.066406"/>
     <use xlink:href="#DejaVuSans-30" x="1016.853516"/>
     <use xlink:href="#DejaVuSans-30" x="1080.476562"/>
     <use xlink:href="#DejaVuSans-30" x="1144.099609"/>
     <use xlink:href="#DejaVuSans-30" x="1207.722656"/>
     <use xlink:href="#DejaVuSans-30" x="1271.345703"/>
     <use xlink:href="#DejaVuSans-30" x="1334.96875"/>
     <use xlink:href="#DejaVuSans-30" x="1398.591797"/>
     <use xlink:href="#DejaVuSans-30" x="1462.214844"/>
     <use xlink:href="#DejaVuSans-25" x="1525.837891"/>
    </g>
   </g>
   <g id="text_20">
    <!-- $c_e$ (t = 10s) -->
    <g transform="translate(186.13 16.318125) scale(0.12 -0.12)">
     <defs>
      <path id="DejaVuSans-28" d="M 1984 4856 
Q 1566 4138 1362 3434 
Q 1159 2731 1159 2009 
Q 1159 1288 1364 580 
Q 1569 -128 1984 -844 
L 1484 -844 
Q 1016 -109 783 600 
Q 550 1309 550 2009 
Q 550 2706 781 3412 
Q 1013 4119 1484 4856 
L 1984 4856 
z
" transform="scale(0.015625)"/>
      <path id="DejaVuSans-3d" d="M 678 2906 
L 4684 2906 
L 4684 2381 
L 678 2381 
L 678 2906 
z
M 678 1631 
L 4684 1631 
L 4684 1100 
L 678 1100 
L 678 1631 
z
" transform="scale(0.015625)"/>
      <path id="DejaVuSans-29" d="M 513 4856 
L 1013 4856 
Q 1481 4119 1714 3412 
Q 1947 2706 1947 2009 
Q 1947 1309 1714 600 
Q 1481 -109 1013 -844 
L 513 -844 
Q 928 -128 1133 580 
Q 1338 1288 1338 2009 
Q 1338 2731 1133 3434 
Q 928 4138 513 4856 
z
" transform="scale(0.015625)"/>
     </defs>
     <use xlink:href="#DejaVuSans-Oblique-63" transform="translate(0 0.125)"/>
     <use xlink:href="#DejaVuSans-Oblique-65" transform="translate(54.980469 -16.28125) scale(0.7)"/>
     <use xlink:href="#DejaVuSans-20" transform="translate(100.78125 0.125)"/>
     <use xlink:href="#DejaVuSans-28" transform="translate(132.568359 0.125)"/>
     <use xlink:href="#DejaVuSans-74" transform="translate(171.582031 0.125)"/>
     <use xlink:href="#DejaVuSans-20" transform="translate(210.791016 0.125)"/>
     <use xlink:href="#DejaVuSans-3d" transform="translate(242.578125 0.125)"/>
     <use xlink:href="#DejaVuSans-20" transform="translate(326.367188 0.125)"/>
     <use xlink:href="#DejaVuSans-31" transform="translate(358.154297 0.125)"/>
     <use xlink:href="#DejaVuSans-30" transform="translate(421.777344 0.125)"/>
     <use xlink:href="#DejaVuSans-73" transform="translate(485.400391 0.125)"/>
     <use xlink:href="#DejaVuSans-29" transform="translate(537.5 0.125)"/>
    </g>
   </g>
   <g id="legend_1">
    <g id="patch_7">
     <path d="M 308.85 59.674375 
L 381.15 59.674375 
Q 383.15 59.674375 383.15 57.674375 
L 383.15 29.318125 
Q 383.15 27.318125 381.15 27.318125 
L 308.85 27.318125 
Q 306.85 27.318125 306.85 29.318125 
L 306.85 57.674375 
Q 306.85 59.674375 308.85 59.674375 
z
" style="fill: #ffffff; opacity: 0.8; stroke: #cccccc; stroke-linejoin: miter"/>
    </g>
    <g id="line2d_20">
     <path d="M 310.85 35.416562 
L 320.85 35.416562 
L 330.85 35.416562 
" style="fill: none; stroke: #ff0000; stroke-width: 1.5; stroke-linecap: square"/>
    </g>
    <g id="text_21">
     <!-- JAX-FEM -->
     <g transform="translate(338.85 38.916562) scale(0.1 -0.1)">
      <defs>
       <path id="DejaVuSans-4a" d="M 628 4666 
L 1259 4666 
L 1259 325 
Q 1259 -519 939 -900 
Q 619 -1281 -91 -1281 
L -331 -1281 
L -331 -750 
L -134 -750 
Q 284 -750 456 -515 
Q 628 -281 628 325 
L 628 4666 
z
" transform="scale(0.015625)"/>
       <path id="DejaVuSans-41" d="M 2188 4044 
L 1331 1722 
L 3047 1722 
L 2188 4044 
z
M 1831 4666 
L 2547 4666 
L 4325 0 
L 3669 0 
L 3244 1197 
L 1141 1197 
L 716 0 
L 50 0 
L 1831 4666 
z
" transform="scale(0.015625)"/>
       <path id="DejaVuSans-58" d="M 403 4666 
L 1081 4666 
L 2241 2931 
L 3406 4666 
L 4084 4666 
L 2584 2425 
L 4184 0 
L 3506 0 
L 2194 1984 
L 872 0 
L 191 0 
L 1856 2491 
L 403 4666 
z
" transform="scale(0.015625)"/>
       <path id="DejaVuSans-2d" d="M 313 2009 
L 1997 2009 
L 1997 1497 
L 313 1497 
L 313 2009 
z
" transform="scale(0.015625)"/>
       <path id="DejaVuSans-46" d="M 628 4666 
L 3309 4666 
L 3309 4134 
L 1259 4134 
L 1259 2759 
L 3109 2759 
L 3109 2228 
L 1259 2228 
L 1259 0 
L 628 0 
L 628 4666 
z
" transform="scale(0.015625)"/>
       <path id="DejaVuSans-45" d="M 628 4666 
L 3578 4666 
L 3578 4134 
L 1259 4134 
L 1259 2753 
L 3481 2753 
L 3481 2222 
L 1259 2222 
L 1259 531 
L 3634 531 
L 3634 0 
L 628 0 
L 628 4666 
z
" transform="scale(0.015625)"/>
      </defs>
      <use xlink:href="#DejaVuSans-4a"/>
      <use xlink:href="#DejaVuSans-41" x="27.742188"/>
      <use xlink:href="#DejaVuSans-58" x="96.150391"/>
      <use xlink:href="#DejaVuSans-2d" x="159.65625"/>
      <use xlink:href="#DejaVuSans-46" x="195.740234"/>
      <use xlink:href="#DejaVuSans-45" x="253.259766"/>
      <use xlink:href="#DejaVuSans-4d" x="316.443359"/>
     </g>
    </g>
    <g id="line2d_21">
     <path d="M 310.85 50.094687 
L 320.85 50.094687 
L 330.85 50.094687 
" style="fill: none; stroke-dasharray: 5.55,2.4; stroke-dashoffset: 0; stroke: #0000ff; stroke-width: 1.5"/>
    </g>
    <g id="text_22">
     <!-- MATLAB -->
     <g transform="translate(338.85 53.594687) scale(0.1 -0.1)">
      <defs>
       <path id="DejaVuSans-54" d="M -19 4666 
L 3928 4666 
L 3928 4134 
L 2272 4134 
L 2272 0 
L 1638 0 
L 1638 4134 
L -19 4134 
L -19 4666 
z
" transform="scale(0.015625)"/>
       <path id="DejaVuSans-4c" d="M 628 4666 
L 1259 4666 
L 1259 531 
L 3531 531 
L 3531 0 
L 628 0 
L 628 4666 
z
" transform="scale(0.015625)"/>
       <path id="DejaVuSans-42" d="M 1259 2228 
L 1259 519 
L 2272 519 
Q 2781 519 3026 730 
Q 3272 941 3272 1375 
Q 3272 1813 3026 2020 
Q 2781 2228 2272 2228 
L 1259 2228 
z
M 1259 4147 
L 1259 2741 
L 2194 2741 
Q 2656 2741 2882 2914 
Q 3109 3088 3109 3444 
Q 3109 3797 2882 3972 
Q 2656 4147 2194 4147 
L 1259 4147 
z
M 628 4666 
L 2241 4666 
Q 2963 4666 3353 4366 
Q 3744 4066 3744 3513 
Q 3744 3084 3544 2831 
Q 3344 2578 2956 2516 
Q 3422 2416 3680 2098 
Q 3938 1781 3938 1306 
Q 3938 681 3513 340 
Q 3088 0 2303 0 
L 628 0 
L 628 4666 
z
" transform="scale(0.015625)"/>
      </defs>
      <use xlink:href="#DejaVuSans-4d"/>
      <use xlink:href="#DejaVuSans-41" x="86.279297"/>
      <use xlink:href="#DejaVuSans-54" x="146.9375"/>
      <use xlink:href="#DejaVuSans-4c" x="208.021484"/>
      <use xlink:href="#DejaVuSans-41" x="265.984375"/>
      <use xlink:href="#DejaVuSans-42" x="334.392578"/>
     </g>
    </g>
   </g>
  </g>
 </g>
 <defs>
  <clipPath id="p3ce6ec995c">
   <rect x="53.35" y="22.318125" width="334.8" height="217.44"/>
  </clipPath>
 </defs>
</svg>
